<svg width="135" height="90" viewBox="0 0 135 90" fill="none" xmlns="http://www.w3.org/2000/svg">
<g clip-path="url(#clip0_85_9400)">
<path d="M31.5198 71.2522L33.5132 71.2461C33.5639 71.3734 33.5907 71.5038 33.5907 71.6311C33.5907 71.7584 33.5698 71.8433 33.5311 71.8887C33.4923 71.9342 33.4268 71.9585 33.3374 71.9585H33.0573L31.1443 74.1259C31.919 75.5384 32.4077 76.4024 32.6103 76.7237C32.813 77.042 32.9858 77.2754 33.1258 77.4209C33.2659 77.5664 33.4417 77.6392 33.6503 77.6392C33.7158 77.9362 33.7069 78.1454 33.6264 78.2727C33.546 78.4 33.3016 78.4637 32.8964 78.4637C32.4375 78.4637 32.1246 78.4121 31.9548 78.3121C31.785 78.2121 31.627 77.9878 31.484 77.6392C31.341 77.2906 30.9566 76.4206 30.3279 75.0322L29.5502 76.0538C29.5502 76.7601 29.5591 77.2906 29.574 77.6482H30.0597C30.1103 77.7725 30.1372 77.9029 30.1372 78.0332C30.1372 78.1545 30.1163 78.2394 30.0776 78.2879C30.0388 78.3364 29.9733 78.3606 29.8839 78.3606H27.4763C27.4226 78.209 27.3928 78.0605 27.3928 77.918C27.3928 77.8241 27.4167 77.7543 27.4614 77.7119C27.5061 77.6695 27.5746 77.6482 27.664 77.6482H28.0931C28.1109 77.2026 28.1199 76.0386 28.1199 74.1562C28.1199 73.1376 28.1109 72.4071 28.0931 71.9615H27.4792C27.4256 71.8099 27.3958 71.6644 27.3958 71.5219C27.3958 71.4249 27.4196 71.3552 27.4643 71.3098C27.509 71.2673 27.5776 71.2461 27.667 71.2461H30.0597C30.1103 71.3734 30.1372 71.5038 30.1372 71.6311C30.1372 71.7584 30.1163 71.8433 30.0776 71.8887C30.0388 71.9342 29.9733 71.9585 29.8839 71.9585H29.5651C29.5531 72.4041 29.5472 73.3195 29.5472 74.7048C29.8422 74.3653 30.1968 73.9409 30.6139 73.4317C31.0311 72.9254 31.4065 72.4344 31.7403 71.9615H31.3291C31.2754 71.8099 31.2456 71.6644 31.2456 71.525C31.2456 71.428 31.2695 71.3583 31.3142 71.3128C31.3589 71.2673 31.4274 71.2491 31.5168 71.2491L31.5198 71.2522Z" fill="#006F43"/>
<path d="M35.7718 78.4656C35.0834 78.4656 34.565 78.2625 34.2163 77.8563C33.8677 77.4501 33.6919 76.859 33.6919 76.089C33.6919 75.1251 33.9035 74.3794 34.3266 73.8489C34.7497 73.3184 35.3427 73.0547 36.1085 73.0547C36.7968 73.0547 37.3153 73.2578 37.6639 73.664C38.0095 74.0702 38.1853 74.6583 38.1853 75.4312C38.1853 76.3922 37.9738 77.1409 37.5536 77.6714C37.1335 78.2019 36.5405 78.4656 35.7747 78.4656H35.7718ZM35.9893 77.5653C36.2396 77.5653 36.4243 77.4531 36.5435 77.2288C36.6657 77.0045 36.7253 76.568 36.7253 75.9223C36.7253 75.2191 36.6597 74.7128 36.5256 74.4127C36.3915 74.1126 36.18 73.958 35.8909 73.958C35.6406 73.958 35.4559 74.0702 35.3367 74.2945C35.2145 74.5188 35.1549 74.9553 35.1549 75.598C35.1549 76.3043 35.2205 76.8075 35.3546 77.1106C35.4887 77.4137 35.7002 77.5653 35.9893 77.5653Z" fill="#006F43"/>
<path d="M38.5818 73.4626C38.5818 73.3383 38.6205 73.2565 38.704 73.2171C38.7844 73.1777 39.2939 73.1443 40.2266 73.114C40.2415 73.2595 40.2415 73.4626 40.2266 73.7173C40.614 73.4626 40.9656 73.2868 41.2785 73.1959C41.5913 73.1049 41.8684 73.0625 42.1098 73.0625C42.2201 73.0625 42.2945 73.0777 42.3303 73.1049C42.3661 73.1353 42.3869 73.205 42.3869 73.3111C42.3869 73.502 42.3631 73.7021 42.3094 73.9082C42.2588 74.1144 42.1962 74.2477 42.1217 74.3053C42.0472 74.366 41.928 74.4084 41.7641 74.4357C41.6003 74.466 41.5079 74.4721 41.4811 74.4569C41.4543 74.4448 41.3678 74.3266 41.2218 74.1083C40.9954 74.1083 40.8196 74.1992 40.6974 74.3872C40.5752 74.5721 40.5156 75.051 40.5156 75.824C40.5156 76.5303 40.5246 77.1396 40.5395 77.6489H41.2636C41.3172 77.7641 41.347 77.8914 41.347 78.0339C41.347 78.1551 41.3231 78.24 41.2814 78.2885C41.2367 78.337 41.1503 78.3613 41.0222 78.3613H38.6712C38.6146 78.2157 38.5877 78.0763 38.5877 77.949C38.5877 77.8399 38.6086 77.7641 38.6533 77.7156C38.695 77.6701 38.7665 77.6459 38.8619 77.6459H39.1986C39.2135 77.1366 39.2224 76.5425 39.2224 75.8695C39.2224 74.8964 39.1807 74.3205 39.1003 74.1447C39.0198 73.9689 38.8768 73.881 38.6742 73.881C38.6175 73.7415 38.5907 73.6021 38.5907 73.4626H38.5818Z" fill="#006F43"/>
<path d="M44.988 73.0538C45.6286 73.0538 46.0905 73.2175 46.3795 73.5449C46.6685 73.8723 46.8146 74.3906 46.8146 75.1C46.8146 75.4516 46.752 75.7002 46.6298 75.8517C46.5076 76.0003 46.2395 76.076 45.8223 76.076H44.106C44.1149 76.5307 44.2073 76.8884 44.3771 77.1461C44.55 77.4038 44.8539 77.5341 45.2859 77.5341C45.718 77.5341 46.1471 77.3947 46.5941 77.1158C46.755 77.2916 46.8354 77.4826 46.8354 77.6887C46.8354 77.9676 46.6566 78.1616 46.2931 78.2707C45.9326 78.3798 45.5094 78.4344 45.0237 78.4344C44.1864 78.4344 43.5815 78.2434 43.2031 77.8615C42.8247 77.4795 42.637 76.849 42.637 75.9699C42.637 75.0909 42.8485 74.3391 43.2746 73.8238C43.7007 73.3084 44.2699 73.0508 44.988 73.0508V73.0538ZM44.8032 73.9571C44.5768 73.9571 44.4039 74.0602 44.2818 74.2694C44.1596 74.4785 44.1 74.8393 44.097 75.3606H44.3414C44.684 75.3606 44.9433 75.3485 45.1221 75.3273C45.3008 75.3061 45.4081 75.2667 45.4379 75.2121C45.4677 75.1575 45.4826 75.0696 45.4826 74.9454C45.4826 74.6331 45.423 74.3906 45.3038 74.2178C45.1846 74.0451 45.0148 73.9602 44.8003 73.9602L44.8032 73.9571Z" fill="#006F43"/>
<path d="M50.2028 77.9625C49.9733 78.0959 49.7081 78.2111 49.4131 78.3142C49.1181 78.4172 48.841 78.4688 48.5788 78.4688C48.1318 78.4688 47.8071 78.3536 47.5985 78.1202C47.3899 77.8867 47.2886 77.5594 47.2886 77.141C47.2886 76.553 47.4674 76.1164 47.8249 75.8315C48.1795 75.5466 48.7427 75.4041 49.5115 75.4041H50.015C49.9882 74.8706 49.9107 74.5038 49.7796 74.3067C49.6515 74.1097 49.4578 74.0127 49.1986 74.0127C49.0556 74.0127 48.9036 74.0339 48.7367 74.0733C48.6295 74.3037 48.5669 74.425 48.546 74.4371C48.5252 74.4523 48.4209 74.4826 48.2272 74.5311C48.0335 74.5796 47.8994 74.5644 47.819 74.4826C47.7385 74.4037 47.6581 74.2613 47.5776 74.0612C47.4972 73.8581 47.4554 73.6884 47.4554 73.552C47.4554 73.464 47.4852 73.3974 47.5508 73.3489C47.6134 73.3004 47.8458 73.2488 48.2481 73.1912C48.6503 73.1367 49.0794 73.1094 49.5353 73.1094C50.0746 73.1094 50.5007 73.2155 50.8076 73.4246C51.1146 73.6368 51.2695 74.043 51.2695 74.6463V76.0255C51.2695 76.7924 51.2993 77.2653 51.3559 77.4411C51.4155 77.617 51.5198 77.6867 51.6688 77.6473C51.7135 77.7443 51.7373 77.8413 51.7373 77.9322C51.7373 78.0898 51.6539 78.2081 51.49 78.2899C51.3261 78.3718 51.1026 78.4112 50.8225 78.4112C50.7004 78.4112 50.602 78.393 50.5335 78.3596C50.462 78.3263 50.3517 78.1899 50.2028 77.9595V77.9625ZM50.0121 76.2316C49.7916 76.1801 49.5681 76.1528 49.3386 76.1528C49.0794 76.1528 48.8947 76.2013 48.7844 76.2983C48.6742 76.3953 48.6175 76.5802 48.6175 76.85C48.6175 77.0865 48.6712 77.2653 48.7814 77.3835C48.8917 77.5048 49.0496 77.5654 49.2582 77.5654C49.425 77.5654 49.5711 77.526 49.6992 77.4442C49.8273 77.3623 49.9107 77.2502 49.9495 77.1016C49.9882 76.9531 50.0091 76.7621 50.0091 76.5257V76.2286L50.0121 76.2316Z" fill="#006F43"/>
<path d="M57.1753 71.1484C57.6879 71.1484 57.9799 71.1666 58.0454 71.206C58.114 71.2454 58.4149 72.1579 58.9542 73.9463C59.4906 75.7348 59.8809 76.9686 60.1193 77.6506H60.5514C60.602 77.7749 60.6289 77.9053 60.6289 78.0356C60.6289 78.1569 60.608 78.2417 60.5693 78.2902C60.5305 78.3387 60.465 78.363 60.3756 78.363H58.0186C57.968 78.2114 57.9411 78.0629 57.9411 77.9204C57.9411 77.8264 57.965 77.7567 58.0097 77.7143C58.0544 77.6718 58.1229 77.6506 58.2123 77.6506H58.4149C58.3702 77.399 58.251 76.9019 58.0603 76.1532H56.1056C55.9328 76.8837 55.8255 77.3808 55.7838 77.6506H56.2218C56.2755 77.7749 56.2993 77.9053 56.2993 78.0356C56.2993 78.1569 56.2784 78.2417 56.2397 78.2902C56.201 78.3387 56.1354 78.363 56.049 78.363H54.0377C53.984 78.2114 53.9602 78.0629 53.9602 77.9204C53.9602 77.8264 53.984 77.7567 54.0258 77.7143C54.0705 77.6718 54.136 77.6506 54.2254 77.6506H54.4757C54.6932 76.9807 55.024 75.8925 55.465 74.3859C55.906 72.8793 56.198 71.9639 56.344 71.6395C56.49 71.3152 56.7641 71.1515 57.1694 71.1515L57.1753 71.1484ZM56.3142 75.2801H57.8398C57.369 73.528 57.1068 72.655 57.0502 72.655C56.9936 72.655 56.7492 73.5311 56.3142 75.2801Z" fill="#006F43"/>
<path d="M64.5889 73.7507C64.7379 74.1114 64.8154 74.4691 64.8154 74.8208C64.8154 75.4392 64.6336 75.9302 64.2701 76.297C63.9065 76.6638 63.3732 76.8457 62.67 76.8457C62.366 76.8457 62.1753 76.879 62.0949 76.9457C62.0174 77.0124 61.9786 77.1124 61.9786 77.2489C61.9786 77.3853 62.0263 77.4853 62.1217 77.555C62.217 77.6217 62.7117 77.6581 63.6026 77.6581C64.3803 77.6581 64.8928 77.7551 65.1402 77.9521C65.3875 78.1492 65.5096 78.4341 65.5096 78.81C65.5096 79.3829 65.2385 79.8346 64.6932 80.165C64.1479 80.4954 63.3017 80.6591 62.1515 80.6591C61.6151 80.6591 61.2605 80.5833 61.0847 80.4287C60.9089 80.2772 60.8225 80.0619 60.8225 79.7861C60.8225 79.586 60.8702 79.3829 60.9685 79.1798C61.0639 78.9767 61.2009 78.7766 61.3708 78.5826C61.2129 78.522 61.0877 78.422 60.9894 78.2795C60.894 78.137 60.8434 77.9643 60.8434 77.7581C60.8434 77.5126 60.9149 77.3004 61.0609 77.1155C61.2039 76.9306 61.3976 76.776 61.6419 76.6517C61.4393 76.5547 61.2725 76.3819 61.1413 76.1364C61.0102 75.8908 60.9447 75.5756 60.9417 75.1936C60.9417 74.5783 61.1205 74.069 61.481 73.6658C61.8416 73.2596 62.3809 73.0596 63.099 73.0596C63.4626 73.0596 63.8142 73.1263 64.1539 73.2627C64.5949 73.0293 64.8541 72.9141 64.9375 72.9141C65.3845 72.9141 65.6288 72.9262 65.6735 72.9535C65.7182 72.9777 65.7391 73.0262 65.7391 73.0959C65.7391 73.199 65.6944 73.3475 65.608 73.5476C65.5216 73.7477 65.4381 73.8477 65.3577 73.8477C65.2772 73.8477 65.0478 73.7659 64.6664 73.5991L64.5829 73.7537L64.5889 73.7507ZM62.1515 78.6554C62.08 78.7494 62.0233 78.8585 61.9816 78.9797C61.9399 79.104 61.9191 79.2253 61.9191 79.3435C61.922 79.5466 61.9786 79.6921 62.0889 79.777C62.1991 79.8619 62.4226 79.9043 62.7653 79.9043C63.2421 79.9043 63.5966 79.8437 63.832 79.7224C64.0674 79.6012 64.1837 79.4193 64.1837 79.1798C64.1837 78.9767 64.0972 78.8403 63.9244 78.7645C63.7516 78.6887 63.1616 78.6524 62.1485 78.6524L62.1515 78.6554ZM62.8696 73.8083C62.6521 73.8083 62.4882 73.8871 62.3809 74.0417C62.2736 74.1993 62.22 74.5085 62.22 74.9693C62.22 75.3967 62.2766 75.6938 62.3869 75.8544C62.4971 76.0151 62.664 76.097 62.8845 76.097C63.105 76.097 63.2748 76.0181 63.3821 75.8635C63.4894 75.7089 63.543 75.3998 63.543 74.939C63.543 74.5419 63.4864 74.2569 63.3732 74.0751C63.2599 73.8932 63.0931 73.8083 62.8696 73.8083Z" fill="#006F43"/>
<path d="M68.2988 73.0538C68.9394 73.0538 69.4013 73.2175 69.6903 73.5449C69.9793 73.8723 70.1253 74.3906 70.1253 75.1C70.1253 75.4516 70.0628 75.7002 69.9406 75.8517C69.8184 76.0003 69.5503 76.076 69.1331 76.076H67.4168C67.4257 76.5307 67.5181 76.8884 67.6879 77.1461C67.8607 77.4038 68.1647 77.5341 68.5967 77.5341C69.0288 77.5341 69.4579 77.3947 69.9048 77.1158C70.0658 77.2916 70.1462 77.4826 70.1462 77.6887C70.1462 77.9676 69.9674 78.1616 69.6039 78.2707C69.2433 78.3798 68.8202 78.4344 68.3345 78.4344C67.4972 78.4344 66.8923 78.2434 66.5139 77.8615C66.1355 77.4795 65.9478 76.849 65.9478 75.9699C65.9478 75.0909 66.1593 74.3391 66.5854 73.8238C67.0115 73.3084 67.5806 73.0508 68.2988 73.0508V73.0538ZM68.114 73.9571C67.8876 73.9571 67.7147 74.0602 67.5926 74.2694C67.4734 74.4785 67.4108 74.8393 67.4078 75.3606H67.6522C67.9948 75.3606 68.2541 75.3485 68.4329 75.3273C68.6116 75.3061 68.7189 75.2667 68.7487 75.2121C68.7785 75.1575 68.7934 75.0696 68.7934 74.9454C68.7934 74.6331 68.7338 74.3906 68.6146 74.2178C68.4954 74.0451 68.3256 73.9602 68.111 73.9602L68.114 73.9571Z" fill="#006F43"/>
<path d="M72.2378 73.7142C72.5745 73.4778 72.8933 73.3111 73.2032 73.211C73.5131 73.111 73.7694 73.0625 73.9809 73.0625C74.413 73.0625 74.7378 73.1686 74.9464 73.3868C75.1579 73.6021 75.2622 74.0356 75.2622 74.6903C75.2622 76.4 75.289 77.3215 75.3456 77.4549C75.4023 77.5883 75.5215 77.6519 75.7062 77.6489C75.7509 77.7732 75.7747 77.9035 75.7747 78.0399C75.7747 78.1642 75.739 78.2491 75.6675 78.2946C75.5959 78.34 75.4559 78.3613 75.2533 78.3613C74.7557 78.3613 74.4398 78.3522 74.3087 78.334C74.1776 78.3158 74.0852 78.2612 74.0375 78.1642C73.9869 78.0672 73.9631 77.9096 73.9631 77.6822V75.8422C73.9631 75.1329 73.9064 74.66 73.7902 74.4175C73.674 74.175 73.4893 74.0537 73.23 74.0537C73.0125 74.0537 72.8397 74.1265 72.7145 74.269C72.5894 74.4114 72.5268 74.7146 72.5268 75.1723V76.2211C72.5268 76.6607 72.5358 77.1336 72.5507 77.6459H73.0989C73.1496 77.7611 73.1764 77.8884 73.1764 78.0308C73.1764 78.1521 73.1555 78.237 73.1108 78.2855C73.0662 78.334 72.9797 78.3582 72.8516 78.3582H70.6794C70.6228 78.2127 70.5959 78.0733 70.5959 77.946C70.5959 77.8368 70.6168 77.761 70.6615 77.7125C70.7032 77.6671 70.7747 77.6428 70.8701 77.6428H71.2068C71.2217 77.0699 71.2306 76.4758 71.2306 75.8665C71.2306 74.8934 71.1889 74.3175 71.1085 74.1417C71.028 73.9658 70.885 73.8779 70.6824 73.8779C70.6257 73.7385 70.5989 73.599 70.5989 73.4596C70.5989 73.3353 70.6377 73.2535 70.7211 73.2141C70.8045 73.1747 71.3111 73.1413 72.2437 73.111C72.2586 73.2565 72.2586 73.4566 72.2437 73.7112L72.2378 73.7142Z" fill="#006F43"/>
<path d="M78.4418 78.4704C77.5896 78.4704 76.9966 78.2915 76.6569 77.9369C76.3173 77.5792 76.1504 76.9699 76.1504 76.106C76.1504 75.1329 76.3709 74.3811 76.8119 73.8537C77.2529 73.3262 77.9114 73.0625 78.7875 73.0625C79.2493 73.0625 79.5681 73.108 79.744 73.1959C79.9198 73.2868 80.0121 73.4384 80.0181 73.6506C80.0181 73.9204 79.9436 74.1689 79.7916 74.3902C79.2821 74.1053 78.8649 73.9628 78.5461 73.9628C78.2273 73.9628 77.9919 74.0901 77.8399 74.3448C77.6879 74.5994 77.6105 75.048 77.6105 75.6937C77.6105 76.3394 77.685 76.8001 77.8339 77.1093C77.9829 77.4155 78.2541 77.5701 78.6474 77.5701C78.9662 77.5701 79.3774 77.4367 79.878 77.1669C80.0062 77.37 80.0717 77.5822 80.0717 77.8035C80.0717 78.0248 79.9078 78.1976 79.583 78.3067C79.2583 78.4158 78.8768 78.4704 78.4388 78.4704H78.4418Z" fill="#006F43"/>
<path d="M84.8182 73.9781C84.7229 74.26 84.4577 75.2452 84.0197 76.9397C83.5816 78.6312 83.2449 79.6315 83.0066 79.9377C82.7712 80.2438 82.4911 80.4409 82.1693 80.5257C81.8474 80.6106 81.4928 80.6531 81.1025 80.6531C80.7122 80.6531 80.438 80.6136 80.3099 80.5348C80.1788 80.456 80.1162 80.3226 80.1162 80.1377C80.1162 79.9134 80.1818 79.7103 80.3159 79.5284C80.9744 79.683 81.4511 79.7528 81.7461 79.7315C82.0441 79.7103 82.3123 79.2708 82.5507 78.4129C82.0679 78.425 81.8087 78.422 81.77 78.4008C81.7312 78.3765 81.5942 77.8157 81.3558 76.7184C81.1174 75.618 80.9684 74.9451 80.9088 74.6935C80.8492 74.4419 80.8016 74.26 80.7628 74.1448C80.7271 74.0296 80.6764 73.9569 80.6108 73.9266C80.5453 73.8962 80.441 73.8841 80.292 73.8841C80.2384 73.7235 80.2145 73.5779 80.2145 73.4476C80.2145 73.2869 80.2771 73.193 80.4052 73.1627C80.5304 73.1323 80.8105 73.1172 81.2396 73.1172C81.5286 73.1172 81.7283 73.1384 81.8355 73.1808C81.9458 73.2202 82.0203 73.296 82.062 73.4052C82.1037 73.5143 82.1663 73.8477 82.2527 74.4055C82.3391 74.9633 82.4493 75.6241 82.5864 76.385C82.7235 77.1488 82.8129 77.5278 82.8516 77.5278C82.8903 77.5278 83.0244 77.0124 83.2449 75.9818C83.4684 74.9511 83.5965 74.2842 83.6293 73.9781H83.379C83.3254 73.8568 83.2956 73.7265 83.2956 73.5931C83.2956 73.4597 83.3194 73.3597 83.3671 73.296C83.4148 73.2354 83.4923 73.2051 83.5995 73.2051H85.1669C85.2205 73.3233 85.2503 73.4506 85.2503 73.581C85.2503 73.7325 85.2235 73.8386 85.1728 73.8932C85.1222 73.9478 85.0298 73.975 84.9017 73.975H84.8182V73.9781Z" fill="#006F43"/>
<path d="M89.5921 78.4656C88.9037 78.4656 88.3853 78.2625 88.0366 77.8563C87.688 77.4501 87.5122 76.859 87.5122 76.089C87.5122 75.1251 87.7238 74.3794 88.1469 73.8489C88.57 73.3184 89.163 73.0547 89.9288 73.0547C90.6171 73.0547 91.1356 73.2578 91.4842 73.664C91.8298 74.0702 92.0056 74.6583 92.0056 75.4312C92.0056 76.3922 91.7941 77.1409 91.3739 77.6714C90.9538 78.2019 90.3608 78.4656 89.595 78.4656H89.5921ZM89.8096 77.5653C90.0599 77.5653 90.2446 77.4531 90.3638 77.2288C90.486 77.0045 90.5456 76.568 90.5456 75.9223C90.5456 75.2191 90.48 74.7128 90.3459 74.4127C90.2119 74.1096 90.0003 73.958 89.7113 73.958C89.461 73.958 89.2762 74.0702 89.157 74.2945C89.0348 74.5188 88.9753 74.9553 88.9753 75.598C88.9753 76.3043 89.0408 76.8075 89.1749 77.1106C89.309 77.4137 89.5205 77.5653 89.8096 77.5653Z" fill="#006F43"/>
<path d="M94.3117 77.648H95.0417C95.0924 77.7632 95.1192 77.8905 95.1192 78.033C95.1192 78.1542 95.0983 78.2391 95.0536 78.2876C95.0119 78.3361 94.9225 78.3603 94.7914 78.3603H92.3927C92.3391 78.2148 92.3152 78.0754 92.3152 77.9481C92.3152 77.839 92.3361 77.7632 92.3808 77.7147C92.4225 77.6692 92.494 77.6449 92.5894 77.6449H92.9678C92.9827 77.1993 92.9916 76.7265 92.9916 76.2202V73.9801H92.3957C92.3391 73.8315 92.3123 73.68 92.3123 73.5254C92.3123 73.4072 92.3331 73.3223 92.3748 73.2768C92.4166 73.2283 92.4851 73.2041 92.5834 73.2041H92.9887C93.0065 72.3523 93.1883 71.7611 93.534 71.4307C93.8796 71.1003 94.4338 70.9336 95.1966 70.9336C95.6377 70.9336 95.9624 70.9821 96.168 71.0761C96.3736 71.17 96.4749 71.3277 96.4749 71.5459C96.4749 71.7642 96.3945 71.9946 96.2306 72.228C95.6138 71.9279 95.1579 71.7793 94.8719 71.7793C94.6245 71.7793 94.4666 71.8703 94.3951 72.0522C94.3236 72.234 94.2908 72.5311 94.2908 72.9373V73.201H95.5393C95.59 73.3405 95.6168 73.489 95.6168 73.6436C95.6168 73.777 95.5959 73.8649 95.5512 73.9073C95.5095 73.9528 95.4261 73.977 95.3009 73.977H94.2878V76.2172C94.2878 76.7204 94.2968 77.1963 94.3117 77.6419V77.648Z" fill="#006F43"/>
<path d="M102.256 71.2504H104.276C104.33 71.3777 104.353 71.5081 104.353 71.6354C104.353 71.7627 104.333 71.8476 104.294 71.893C104.255 71.9385 104.19 71.9628 104.103 71.9628H103.883C103.683 72.6327 103.358 73.7482 102.911 75.3093C102.464 76.8705 102.169 77.7859 102.023 78.0557C101.877 78.3255 101.576 78.4619 101.114 78.4619C100.626 78.4619 100.355 78.4437 100.304 78.4043C100.253 78.3649 99.9643 77.4525 99.4428 75.664C98.9214 73.8755 98.543 72.6418 98.3016 71.9597H97.9142C97.8606 71.8082 97.8308 71.6627 97.8308 71.5202C97.8308 71.4232 97.8546 71.3535 97.8993 71.308C97.944 71.2656 98.0126 71.2443 98.102 71.2443H100.393C100.444 71.3717 100.471 71.502 100.471 71.6293C100.471 71.7566 100.45 71.8415 100.411 71.887C100.373 71.9325 100.307 71.9567 100.221 71.9567H99.9941C100.063 72.3326 100.292 73.2602 100.688 74.7364C101.085 76.2127 101.308 76.9523 101.365 76.9523C101.421 76.9523 101.618 76.2218 101.952 74.7576C102.288 73.2966 102.464 72.3599 102.488 71.9537H102.053C102.002 71.8021 101.976 71.6566 101.976 71.5141C101.976 71.4171 101.996 71.3474 102.041 71.3019C102.086 71.2595 102.154 71.2383 102.247 71.2383L102.256 71.2504Z" fill="#006F43"/>
<path d="M106.377 73.0538C107.018 73.0538 107.479 73.2175 107.768 73.5449C108.057 73.8723 108.203 74.3906 108.203 75.1C108.203 75.4516 108.141 75.7002 108.019 75.8517C107.897 76.0003 107.628 76.076 107.211 76.076H105.495C105.504 76.5307 105.596 76.8884 105.766 77.1461C105.939 77.4038 106.243 77.5341 106.675 77.5341C107.107 77.5341 107.536 77.3947 107.983 77.1158C108.144 77.2916 108.224 77.4826 108.224 77.6887C108.224 77.9676 108.046 78.1616 107.682 78.2707C107.321 78.3798 106.898 78.4344 106.413 78.4344C105.575 78.4344 104.97 78.2434 104.592 77.8615C104.214 77.4795 104.026 76.849 104.026 75.9699C104.026 75.0909 104.237 74.3391 104.664 73.8238C105.09 73.3084 105.659 73.0508 106.377 73.0508V73.0538ZM106.192 73.9571C105.966 73.9571 105.793 74.0602 105.671 74.2694C105.549 74.4785 105.489 74.8393 105.486 75.3606H105.73C106.073 75.3606 106.332 75.3485 106.511 75.3273C106.69 75.3061 106.797 75.2667 106.827 75.2121C106.857 75.1575 106.872 75.0696 106.872 74.9454C106.872 74.6331 106.812 74.3906 106.693 74.2178C106.574 74.0451 106.404 73.9602 106.189 73.9602L106.192 73.9571Z" fill="#006F43"/>
<path d="M112.485 73.7507C112.634 74.1114 112.711 74.4691 112.711 74.8208C112.711 75.4392 112.53 75.9302 112.166 76.297C111.803 76.6638 111.269 76.8457 110.566 76.8457C110.262 76.8457 110.071 76.879 109.991 76.9457C109.913 77.0124 109.875 77.1124 109.875 77.2489C109.875 77.3853 109.922 77.4853 110.018 77.555C110.113 77.6217 110.608 77.6581 111.499 77.6581C112.276 77.6581 112.789 77.7551 113.036 77.9521C113.283 78.1492 113.406 78.4341 113.406 78.81C113.406 79.3829 113.134 79.8346 112.589 80.165C112.044 80.4954 111.198 80.6591 110.047 80.6591C109.511 80.6591 109.157 80.5833 108.981 80.4287C108.805 80.2772 108.719 80.0619 108.719 79.7861C108.719 79.586 108.766 79.3829 108.865 79.1798C108.96 78.9767 109.097 78.7766 109.267 78.5826C109.109 78.522 108.984 78.422 108.885 78.2795C108.79 78.137 108.739 77.9643 108.739 77.7581C108.739 77.5126 108.811 77.3004 108.957 77.1155C109.1 76.9306 109.294 76.776 109.538 76.6517C109.335 76.5547 109.168 76.3819 109.037 76.1364C108.906 75.8908 108.841 75.5756 108.838 75.1936C108.838 74.5783 109.016 74.069 109.377 73.6658C109.738 73.2596 110.277 73.0596 110.995 73.0596C111.359 73.0596 111.71 73.1263 112.05 73.2627C112.491 73.0293 112.75 72.9141 112.834 72.9141C113.28 72.9141 113.525 72.9262 113.57 72.9535C113.614 72.9777 113.635 73.0262 113.635 73.0959C113.635 73.199 113.59 73.3475 113.504 73.5476C113.418 73.7477 113.334 73.8477 113.254 73.8477C113.173 73.8477 112.944 73.7659 112.562 73.5991L112.479 73.7537L112.485 73.7507ZM110.047 78.6554C109.976 78.7494 109.919 78.8585 109.878 78.9797C109.836 79.104 109.815 79.2253 109.815 79.3435C109.818 79.5466 109.875 79.6921 109.985 79.777C110.095 79.8619 110.319 79.9043 110.661 79.9043C111.138 79.9043 111.493 79.8437 111.728 79.7224C111.963 79.6012 112.08 79.4193 112.08 79.1798C112.08 78.9767 111.993 78.8403 111.82 78.7645C111.648 78.6887 111.058 78.6524 110.044 78.6524L110.047 78.6554ZM110.766 73.8083C110.548 73.8083 110.384 73.8871 110.277 74.0417C110.17 74.1993 110.116 74.5085 110.116 74.9693C110.116 75.3967 110.173 75.6938 110.283 75.8544C110.393 76.0151 110.56 76.097 110.78 76.097C111.001 76.097 111.171 76.0181 111.278 75.8635C111.385 75.7089 111.439 75.3998 111.439 74.939C111.439 74.5419 111.382 74.2569 111.269 74.0751C111.156 73.8932 110.989 73.8083 110.766 73.8083Z" fill="#006F43"/>
<path d="M116.767 77.9625C116.538 78.0959 116.273 78.2111 115.978 78.3142C115.683 78.4172 115.405 78.4688 115.143 78.4688C114.696 78.4688 114.372 78.3536 114.163 78.1202C113.954 77.8867 113.853 77.5594 113.853 77.141C113.853 76.553 114.032 76.1164 114.389 75.8315C114.744 75.5466 115.307 75.4041 116.076 75.4041H116.579C116.553 74.8706 116.475 74.5038 116.344 74.3067C116.216 74.1097 116.022 74.0127 115.763 74.0127C115.62 74.0127 115.468 74.0339 115.301 74.0733C115.194 74.3037 115.131 74.425 115.11 74.4371C115.09 74.4523 114.985 74.4826 114.792 74.5311C114.598 74.5796 114.464 74.5644 114.383 74.4826C114.303 74.4037 114.223 74.2613 114.142 74.0612C114.062 73.8581 114.02 73.6884 114.02 73.552C114.02 73.464 114.05 73.3974 114.115 73.3489C114.178 73.3004 114.41 73.2488 114.813 73.1912C115.215 73.1367 115.644 73.1094 116.1 73.1094C116.639 73.1094 117.065 73.2155 117.372 73.4246C117.679 73.6368 117.834 74.043 117.834 74.6463V76.0255C117.834 76.7924 117.864 77.2653 117.92 77.4411C117.98 77.617 118.084 77.6867 118.233 77.6473C118.278 77.7443 118.302 77.8413 118.302 77.9322C118.302 78.0898 118.218 78.2081 118.054 78.2899C117.891 78.3718 117.667 78.4112 117.387 78.4112C117.265 78.4112 117.167 78.393 117.098 78.3596C117.026 78.3263 116.916 78.1899 116.767 77.9595V77.9625ZM116.579 76.2316C116.359 76.1801 116.136 76.1528 115.906 76.1528C115.647 76.1528 115.462 76.2013 115.352 76.2983C115.242 76.3953 115.185 76.5802 115.185 76.85C115.185 77.0865 115.239 77.2653 115.349 77.3835C115.459 77.5048 115.617 77.5654 115.826 77.5654C115.992 77.5654 116.138 77.526 116.267 77.4442C116.395 77.3623 116.478 77.2502 116.517 77.1016C116.556 76.9531 116.577 76.7621 116.577 76.5257V76.2286L116.579 76.2316Z" fill="#006F43"/>
<path d="M120.364 73.7142C120.7 73.4778 121.019 73.3111 121.329 73.211C121.639 73.111 121.895 73.0625 122.107 73.0625C122.539 73.0625 122.864 73.1686 123.072 73.3868C123.284 73.6021 123.388 74.0356 123.388 74.6903C123.388 76.4 123.415 77.3215 123.471 77.4549C123.528 77.5883 123.647 77.6519 123.832 77.6489C123.877 77.7732 123.9 77.9035 123.9 78.0399C123.9 78.1642 123.865 78.2491 123.793 78.2946C123.722 78.34 123.585 78.3613 123.379 78.3613C122.881 78.3613 122.566 78.3522 122.434 78.334C122.303 78.3158 122.211 78.2612 122.163 78.1642C122.113 78.0672 122.089 77.9096 122.089 77.6822V75.8422C122.089 75.1329 122.032 74.66 121.916 74.4175C121.8 74.175 121.615 74.0537 121.356 74.0537C121.138 74.0537 120.965 74.1265 120.84 74.269C120.715 74.4114 120.653 74.7146 120.653 75.1723V76.2211C120.653 76.6607 120.661 77.1336 120.676 77.6459H121.225C121.275 77.7611 121.302 77.8884 121.302 78.0308C121.302 78.1521 121.281 78.237 121.237 78.2855C121.192 78.334 121.105 78.3582 120.977 78.3582H118.805C118.748 78.2127 118.722 78.0733 118.722 77.946C118.722 77.8368 118.743 77.761 118.787 77.7125C118.829 77.6671 118.9 77.6428 118.996 77.6428H119.333C119.347 77.0699 119.356 76.4758 119.356 75.8665C119.356 74.8934 119.315 74.3175 119.234 74.1417C119.154 73.9658 119.011 73.8779 118.808 73.8779C118.751 73.7385 118.725 73.599 118.725 73.4596C118.725 73.3353 118.763 73.2535 118.847 73.2141C118.927 73.1747 119.437 73.1413 120.369 73.111C120.384 73.2565 120.384 73.4566 120.369 73.7112L120.364 73.7142Z" fill="#006F43"/>
<path d="M30.6612 89.003C31.1827 89.003 31.6654 88.8424 32.1034 88.5241C32.309 88.7817 32.4133 89.0333 32.4133 89.2789C32.4133 89.5244 32.1988 89.6942 31.7667 89.8185C31.3346 89.9397 30.8311 90.0034 30.253 90.0034C29.3174 90.0034 28.6231 89.773 28.1702 89.3092C27.7143 88.8454 27.4878 87.9845 27.4878 86.7174C27.4878 85.3321 27.7589 84.3136 28.3042 83.6588C28.8495 83.0071 29.6213 82.6797 30.6195 82.6797C31.275 82.6797 31.728 82.7312 31.9812 82.8373C32.2315 82.9434 32.3597 83.1374 32.3597 83.4193C32.3597 83.6376 32.2613 83.874 32.0647 84.1287C31.4836 83.8316 30.9264 83.68 30.396 83.68C29.9491 83.68 29.6183 83.8619 29.4038 84.2226C29.1862 84.5834 29.079 85.2351 29.079 86.1718C29.079 87.2812 29.1982 88.0269 29.4306 88.418C29.666 88.806 30.0772 89.003 30.6672 89.003H30.6612Z" fill="#006F43"/>
<path d="M35.2624 84.5968C35.903 84.5968 36.3649 84.7605 36.6539 85.0879C36.943 85.4152 37.089 85.9336 37.089 86.6429C37.089 86.9946 37.0264 87.2431 36.9042 87.3947C36.7821 87.5432 36.5139 87.619 36.0967 87.619H34.3804C34.3893 88.0737 34.4817 88.4314 34.6515 88.6891C34.8244 88.9467 35.1283 89.0771 35.5604 89.0771C35.9924 89.0771 36.4215 88.9376 36.8685 88.6588C37.0294 88.8346 37.1098 89.0256 37.1098 89.2317C37.1098 89.5106 36.931 89.7046 36.5675 89.8137C36.207 89.9228 35.7838 89.9774 35.2981 89.9774C34.4608 89.9774 33.856 89.7864 33.4775 89.4045C33.0991 89.0225 32.9114 88.392 32.9114 87.5129C32.9114 86.6338 33.1229 85.8821 33.549 85.3667C33.9751 84.8514 34.5443 84.5938 35.2624 84.5938V84.5968ZM35.0776 85.4971C34.8512 85.4971 34.6784 85.6002 34.5562 85.8093C34.434 86.0185 34.3744 86.3792 34.3714 86.9006H34.6158C34.9585 86.9006 35.2177 86.8885 35.3965 86.8672C35.5753 86.846 35.6825 86.8066 35.7123 86.7521C35.7421 86.6975 35.757 86.6096 35.757 86.4853C35.757 86.1731 35.6974 85.9306 35.5782 85.7578C35.4591 85.585 35.2892 85.5001 35.0747 85.5001L35.0776 85.4971Z" fill="#006F43"/>
<path d="M37.5508 84.9978C37.5508 84.8735 37.5895 84.7917 37.673 84.7523C37.7534 84.7128 38.2629 84.6795 39.1956 84.6492C39.2105 84.7947 39.2105 84.9978 39.1956 85.2524C39.583 84.9978 39.9346 84.822 40.2474 84.731C40.5603 84.6401 40.8374 84.5977 41.0788 84.5977C41.189 84.5977 41.2635 84.6128 41.2993 84.6401C41.3351 84.6704 41.3559 84.7401 41.3559 84.8462C41.3559 85.0372 41.3321 85.2373 41.2784 85.4434C41.2278 85.6495 41.1652 85.7829 41.0907 85.8405C41.0162 85.9011 40.897 85.9436 40.7331 85.9708C40.5693 86.0012 40.4769 86.0072 40.4501 85.9921C40.4232 85.9799 40.3368 85.8617 40.1908 85.6435C39.9644 85.6435 39.7886 85.7344 39.6664 85.9224C39.5442 86.1073 39.4846 86.5862 39.4846 87.3592C39.4846 88.0655 39.4936 88.6748 39.5085 89.1841H40.2325C40.2862 89.2992 40.316 89.4266 40.316 89.569C40.316 89.6903 40.2921 89.7752 40.2504 89.8237C40.2057 89.8722 40.1193 89.8964 39.9912 89.8964H37.6402C37.5836 89.7509 37.5567 89.6115 37.5567 89.4842C37.5567 89.375 37.5776 89.2992 37.6223 89.2507C37.664 89.2053 37.7355 89.181 37.8309 89.181H38.1676C38.1825 88.6718 38.1914 88.0776 38.1914 87.4047C38.1914 86.4316 38.1497 85.8557 38.0693 85.6798C37.9888 85.504 37.8458 85.4161 37.6432 85.4161C37.5865 85.2767 37.5597 85.1372 37.5597 84.9978H37.5508Z" fill="#006F43"/>
<path d="M41.794 84.7421H42.1158L42.5717 83.1719C42.7266 83.2234 42.8726 83.2931 43.0067 83.375C43.1408 83.4599 43.2421 83.5538 43.3106 83.6629C43.3792 83.769 43.4149 84.0358 43.4149 84.4602V84.7421H44.9733C45.027 84.8815 45.0508 85.0301 45.0508 85.1847C45.0508 85.3181 45.03 85.406 44.9853 85.4484C44.9406 85.4939 44.8601 85.5181 44.735 85.5181H43.412V87.5764C43.412 88.1736 43.4567 88.5798 43.546 88.798C43.6354 89.0132 43.7844 89.1254 43.99 89.1345C44.1986 89.1436 44.4519 89.0617 44.7499 88.889C44.8393 89.0223 44.884 89.18 44.884 89.3527C44.884 89.5892 44.7737 89.7498 44.5532 89.8317C44.3327 89.9135 43.99 89.9529 43.5282 89.9529C43.0216 89.9529 42.6581 89.8378 42.4406 89.6074C42.223 89.377 42.1158 88.9344 42.1158 88.2736V87.3672C42.1158 86.7943 42.1009 86.179 42.0711 85.5242H41.6003C41.5437 85.3757 41.5168 85.2241 41.5168 85.0695C41.5168 84.9513 41.5377 84.8664 41.5794 84.8209C41.6211 84.7724 41.6897 84.7482 41.788 84.7482L41.794 84.7421Z" fill="#006F43"/>
<path d="M47.2198 89.1832H47.7651C47.8187 89.2984 47.8425 89.4257 47.8425 89.5682C47.8425 89.6894 47.8217 89.7743 47.777 89.8228C47.7323 89.8713 47.6459 89.8955 47.5177 89.8955H45.3038C45.2531 89.75 45.2263 89.6106 45.2263 89.4833C45.2263 89.3742 45.2472 89.2984 45.2919 89.2499C45.3336 89.2044 45.4051 89.1802 45.5005 89.1802H45.8789C45.8938 88.7346 45.9027 88.2617 45.9027 87.7554C45.9027 86.9885 45.8968 86.4793 45.8878 86.2277C45.8759 85.9761 45.8521 85.7911 45.8163 85.6759C45.7805 85.5608 45.721 85.488 45.6465 85.4577C45.569 85.4274 45.4587 85.4153 45.3098 85.4153C45.2591 85.3182 45.2323 85.2061 45.2323 85.0757C45.2323 84.8817 45.3038 84.7605 45.4438 84.7181C45.5839 84.6726 45.8729 84.6483 46.305 84.6483C46.6298 84.6483 46.8533 84.6635 46.9724 84.6908C47.0916 84.7181 47.1572 84.7726 47.1751 84.8545C47.1929 84.9363 47.1989 85.0485 47.1989 85.197V87.7615C47.1989 88.2647 47.2108 88.7406 47.2257 89.1862L47.2198 89.1832ZM46.3735 83.9723C46.0964 83.9723 45.8968 83.9117 45.7746 83.7905C45.6524 83.6692 45.5898 83.5025 45.5898 83.2812C45.5898 83.0599 45.6673 82.8629 45.8252 82.7174C45.9832 82.5688 46.2037 82.4961 46.4927 82.4961C46.7817 82.4961 46.9963 82.5597 47.1185 82.6871C47.2406 82.8144 47.3032 82.9811 47.3032 83.1842C47.3032 83.4085 47.2287 83.5995 47.0827 83.748C46.9367 83.8966 46.6983 83.9723 46.3735 83.9723Z" fill="#006F43"/>
<path d="M52.5629 84.7422C52.8848 84.7422 53.1082 84.7574 53.2274 84.7877C53.3466 84.818 53.4151 84.8726 53.433 84.9514C53.4509 85.0333 53.4569 85.1454 53.4569 85.2909V87.7614C53.4569 88.2646 53.4658 88.7406 53.4837 89.1862H54.029C54.0826 89.3014 54.1064 89.4287 54.1064 89.5711C54.1064 89.6924 54.0856 89.7773 54.0409 89.8258C53.9962 89.8743 53.9098 89.8985 53.7817 89.8985H51.5677C51.5171 89.753 51.4902 89.6136 51.4902 89.4863C51.4902 89.3771 51.5111 89.3014 51.5558 89.2529C51.5975 89.2074 51.669 89.1831 51.7644 89.1831H52.1368C52.1547 88.7375 52.1637 88.2646 52.1637 87.7584C52.1637 87.0248 52.1577 86.5338 52.1488 86.2822C52.1368 86.0306 52.113 85.8456 52.0743 85.7305C52.0355 85.6153 51.9789 85.5395 51.9044 85.5122C51.8299 85.4819 51.7167 85.4667 51.5707 85.4667H50.0033V87.7584C50.0033 88.2616 50.0123 88.7375 50.0272 89.1831H50.7155C50.7662 89.2983 50.793 89.4256 50.793 89.5681C50.793 89.6894 50.7691 89.7742 50.7274 89.8227C50.6827 89.8712 50.5963 89.8955 50.4682 89.8955H48.1112C48.0576 89.75 48.0337 89.6106 48.0337 89.4832C48.0337 89.3741 48.0546 89.2983 48.0993 89.2498C48.141 89.2044 48.2125 89.1801 48.3079 89.1801H48.6863C48.7012 88.7345 48.7101 88.2616 48.7101 87.7554V85.5152H48.1142C48.0576 85.3667 48.0308 85.2151 48.0308 85.0605C48.0308 84.9423 48.0516 84.8574 48.0933 84.812C48.135 84.7635 48.2036 84.7392 48.3019 84.7392H48.7072C48.725 83.8874 48.9187 83.2963 49.2823 82.9659C49.6488 82.6355 50.3222 82.4688 51.3115 82.4688C52.2173 82.4688 52.8043 82.5203 53.0695 82.6203C53.3347 82.7234 53.4658 82.9204 53.4658 83.2114C53.4658 83.5691 53.3258 83.8601 53.0516 84.0875C52.1428 83.5752 51.4306 83.3175 50.9211 83.3175C50.5427 83.3175 50.2954 83.4054 50.1821 83.5812C50.0659 83.7571 50.0093 84.0814 50.0093 84.5482V84.7422H52.5719H52.5629Z" fill="#006F43"/>
<path d="M56.6601 90.0016C55.8079 90.0016 55.2149 89.8228 54.8752 89.4681C54.5355 89.1104 54.3687 88.5011 54.3687 87.6372C54.3687 86.6641 54.5891 85.9124 55.0301 85.3849C55.4712 84.8575 56.1297 84.5938 57.0057 84.5938C57.4676 84.5938 57.7864 84.6392 57.9622 84.7271C58.138 84.8181 58.2304 84.9696 58.2364 85.1818C58.2364 85.4516 58.1619 85.7002 58.0099 85.9215C57.5004 85.6365 57.0832 85.4941 56.7644 85.4941C56.4455 85.4941 56.2101 85.6214 56.0582 85.876C55.9062 86.1306 55.8287 86.5793 55.8287 87.2249C55.8287 87.8706 55.9032 88.3314 56.0522 88.6406C56.2012 88.9467 56.4723 89.1013 56.8657 89.1013C57.1845 89.1013 57.5957 88.968 58.0963 88.6982C58.2244 88.9013 58.29 89.1135 58.29 89.3347C58.29 89.556 58.1261 89.7288 57.8013 89.8379C57.4765 89.9471 57.0951 90.0016 56.6571 90.0016H56.6601Z" fill="#006F43"/>
<path d="M61.5795 89.4977C61.35 89.6311 61.0848 89.7462 60.7898 89.8493C60.4948 89.9524 60.2177 90.0039 59.9555 90.0039C59.5085 90.0039 59.1838 89.8887 58.9752 89.6553C58.7666 89.4219 58.6653 89.0945 58.6653 88.6762C58.6653 88.0881 58.8441 87.6516 59.2016 87.3667C59.5562 87.0817 60.1194 86.9392 60.8882 86.9392H61.3917C61.3649 86.4057 61.2875 86.0389 61.1563 85.8419C61.0282 85.6449 60.8345 85.5479 60.5753 85.5479C60.4323 85.5479 60.2803 85.5691 60.1134 85.6085C60.0062 85.8389 59.9436 85.9601 59.9227 85.9722C59.9019 85.9874 59.7976 86.0177 59.6039 86.0662C59.4102 86.1147 59.2761 86.0996 59.1957 86.0177C59.1152 85.9389 59.0348 85.7964 58.9543 85.5964C58.8739 85.3933 58.8321 85.2235 58.8321 85.0871C58.8321 84.9992 58.8619 84.9325 58.9275 84.884C58.9901 84.8355 59.2225 84.784 59.6248 84.7264C60.027 84.6718 60.4561 84.6445 60.912 84.6445C61.4513 84.6445 61.8774 84.7506 62.1844 84.9598C62.4913 85.172 62.6462 85.5782 62.6462 86.1814V87.5607C62.6462 88.3276 62.676 88.8005 62.7326 88.9763C62.7922 89.1521 62.8965 89.2218 63.0455 89.1824C63.0902 89.2794 63.114 89.3764 63.114 89.4674C63.114 89.625 63.0306 89.7432 62.8667 89.8251C62.7028 89.9069 62.4793 89.9463 62.1993 89.9463C62.0771 89.9463 61.9788 89.9281 61.9102 89.8948C61.8387 89.8614 61.7285 89.725 61.5795 89.4946V89.4977ZM61.3888 87.7668C61.1683 87.7153 60.9418 87.688 60.7153 87.688C60.4561 87.688 60.2714 87.7365 60.1611 87.8335C60.0509 87.9305 59.9942 88.1154 59.9942 88.3852C59.9942 88.6216 60.0479 88.8005 60.1581 88.9187C60.2684 89.0399 60.4263 89.1006 60.6349 89.1006C60.8018 89.1006 60.9478 89.0612 61.0759 88.9793C61.204 88.8975 61.2875 88.7853 61.3262 88.6368C61.3649 88.4882 61.3858 88.2973 61.3858 88.0608V87.7638L61.3888 87.7668Z" fill="#006F43"/>
<path d="M63.7127 84.7421H64.0345L64.4904 83.1719C64.6453 83.2234 64.7913 83.2931 64.9254 83.375C65.0595 83.4599 65.1608 83.5538 65.2294 83.6629C65.2979 83.769 65.3336 84.0358 65.3336 84.4602V84.7421H66.892C66.9457 84.8815 66.9695 85.0301 66.9695 85.1847C66.9695 85.3181 66.9487 85.406 66.904 85.4484C66.8593 85.4939 66.7788 85.5181 66.6537 85.5181H65.3307V87.5764C65.3307 88.1736 65.3754 88.5798 65.4647 88.798C65.5541 89.0132 65.7031 89.1254 65.9087 89.1345C66.1173 89.1436 66.3706 89.0617 66.6686 88.889C66.758 89.0223 66.8027 89.18 66.8027 89.3527C66.8027 89.5892 66.6924 89.7498 66.4719 89.8317C66.2514 89.9135 65.9087 89.9529 65.4469 89.9529C64.9403 89.9529 64.5768 89.8378 64.3593 89.6074C64.1417 89.377 64.0345 88.9344 64.0345 88.2736V87.3672C64.0345 86.7943 64.0196 86.179 63.9898 85.5242H63.519C63.4624 85.3757 63.4355 85.2241 63.4355 85.0695C63.4355 84.9513 63.4564 84.8664 63.4981 84.8209C63.5398 84.7724 63.6084 84.7482 63.7067 84.7482L63.7127 84.7421Z" fill="#006F43"/>
<path d="M69.1392 89.1832H69.6845C69.7381 89.2984 69.762 89.4257 69.762 89.5682C69.762 89.6894 69.7411 89.7743 69.6964 89.8228C69.6517 89.8713 69.5653 89.8955 69.4372 89.8955H67.2232C67.1726 89.75 67.1458 89.6106 67.1458 89.4833C67.1458 89.3742 67.1666 89.2984 67.2113 89.2499C67.253 89.2044 67.3245 89.1802 67.4199 89.1802H67.7983C67.8132 88.7346 67.8222 88.2617 67.8222 87.7554C67.8222 86.9885 67.8162 86.4793 67.8073 86.2277C67.7953 85.9761 67.7715 85.7911 67.7357 85.6759C67.7 85.5608 67.6404 85.488 67.5659 85.4577C67.4884 85.4274 67.3782 85.4153 67.2292 85.4153C67.1785 85.3182 67.1517 85.2061 67.1517 85.0757C67.1517 84.8817 67.2232 84.7605 67.3633 84.7181C67.5033 84.6726 67.7924 84.6483 68.2244 84.6483C68.5492 84.6483 68.7727 84.6635 68.8919 84.6908C69.0111 84.7181 69.0766 84.7726 69.0945 84.8545C69.1124 84.9363 69.1183 85.0485 69.1183 85.197V87.7615C69.1183 88.2647 69.1303 88.7406 69.1452 89.1862L69.1392 89.1832ZM68.2959 83.9723C68.0188 83.9723 67.8192 83.9117 67.697 83.7905C67.5748 83.6692 67.5123 83.5025 67.5123 83.2812C67.5123 83.0599 67.5897 82.8629 67.7477 82.7174C67.9056 82.5688 68.1261 82.4961 68.4151 82.4961C68.7042 82.4961 68.9187 82.5597 69.0409 82.6871C69.163 82.8144 69.2256 82.9811 69.2256 83.1842C69.2256 83.4085 69.1511 83.5995 69.0051 83.748C68.8591 83.8966 68.6207 83.9723 68.2959 83.9723Z" fill="#006F43"/>
<path d="M72.1067 90.0047C71.4184 90.0047 70.8999 89.8016 70.5513 89.3954C70.2027 88.9892 70.0269 88.3981 70.0269 87.6281C70.0269 86.6641 70.2384 85.9184 70.6615 85.388C71.0847 84.8575 71.6776 84.5938 72.4434 84.5938C73.1317 84.5938 73.6502 84.7969 73.9988 85.203C74.3445 85.6092 74.5203 86.1973 74.5203 86.9703C74.5203 87.9312 74.3087 88.68 73.8886 89.2105C73.4685 89.7409 72.8755 90.0047 72.1097 90.0047H72.1067ZM72.3242 89.1044C72.5745 89.1044 72.7593 88.9922 72.8785 88.7679C73.0006 88.5436 73.0602 88.1071 73.0602 87.4614C73.0602 86.7581 72.9947 86.2519 72.8606 85.9518C72.7265 85.6487 72.5149 85.4971 72.2259 85.4971C71.9756 85.4971 71.7909 85.6093 71.6717 85.8336C71.5495 86.0579 71.4899 86.4944 71.4899 87.137C71.4899 87.8433 71.5555 88.3465 71.6895 88.6497C71.8236 88.9528 72.0352 89.1044 72.3242 89.1044Z" fill="#006F43"/>
<path d="M76.5615 85.2494C76.8982 85.0129 77.2171 84.8462 77.5269 84.7462C77.8368 84.6462 78.0931 84.5977 78.3047 84.5977C78.7367 84.5977 79.0615 84.7038 79.2701 84.922C79.4817 85.1372 79.5859 85.5707 79.5859 86.2255C79.5859 87.9351 79.6128 88.8567 79.6694 88.99C79.726 89.1234 79.8452 89.1871 80.0299 89.1841C80.0746 89.3083 80.0985 89.4387 80.0985 89.5751C80.0985 89.6994 80.0627 89.7842 79.9912 89.8297C79.9197 89.8752 79.7796 89.8964 79.577 89.8964C79.0794 89.8964 78.7635 89.8873 78.6324 89.8691C78.5013 89.8509 78.409 89.7964 78.3613 89.6994C78.3106 89.6024 78.2868 89.4447 78.2868 89.2174V87.3774C78.2868 86.668 78.2302 86.1952 78.114 85.9527C77.9977 85.7102 77.813 85.5889 77.5538 85.5889C77.3362 85.5889 77.1634 85.6616 77.0383 85.8041C76.9131 85.9466 76.8506 86.2497 76.8506 86.7075V87.7563C76.8506 88.1958 76.8595 88.6687 76.8744 89.181H77.4227C77.4733 89.2962 77.5001 89.4235 77.5001 89.566C77.5001 89.6872 77.4793 89.7721 77.4346 89.8206C77.3899 89.8691 77.3035 89.8934 77.1753 89.8934H75.0031C74.9465 89.7479 74.9197 89.6084 74.9197 89.4811C74.9197 89.372 74.9405 89.2962 74.9852 89.2477C75.0269 89.2022 75.0985 89.178 75.1938 89.178H75.5305C75.5454 88.6051 75.5544 88.0109 75.5544 87.4016C75.5544 86.4286 75.5126 85.8526 75.4322 85.6768C75.3517 85.501 75.2087 85.4131 75.0061 85.4131C74.9495 85.2736 74.9227 85.1342 74.9227 84.9948C74.9227 84.8705 74.9614 84.7886 75.0448 84.7492C75.1253 84.7098 75.6348 84.6765 76.5675 84.6462C76.5824 84.7917 76.5824 84.9917 76.5675 85.2464L76.5615 85.2494Z" fill="#006F43"/>
<path d="M85.4799 89.4977C85.2504 89.6311 84.9852 89.7462 84.6902 89.8493C84.3952 89.9524 84.1181 90.0039 83.8559 90.0039C83.4089 90.0039 83.0842 89.8887 82.8756 89.6553C82.667 89.4219 82.5657 89.0945 82.5657 88.6762C82.5657 88.0881 82.7445 87.6516 83.102 87.3667C83.4566 87.0817 84.0198 86.9392 84.7886 86.9392H85.2921C85.2653 86.4057 85.1878 86.0389 85.0567 85.8419C84.9286 85.6449 84.7349 85.5479 84.4757 85.5479C84.3327 85.5479 84.1807 85.5691 84.0138 85.6085C83.9066 85.8389 83.844 85.9601 83.8231 85.9722C83.8023 85.9874 83.698 86.0177 83.5043 86.0662C83.3106 86.1147 83.1765 86.0996 83.0961 86.0177C83.0156 85.9389 82.9352 85.7964 82.8547 85.5964C82.7743 85.3933 82.7325 85.2235 82.7325 85.0871C82.7325 84.9992 82.7623 84.9325 82.8279 84.884C82.8905 84.8355 83.1229 84.784 83.5251 84.7264C83.9274 84.6718 84.3565 84.6445 84.8124 84.6445C85.3517 84.6445 85.7778 84.7506 86.0847 84.9598C86.3917 85.172 86.5466 85.5782 86.5466 86.1814V87.5607C86.5466 88.3276 86.5764 88.8005 86.633 88.9763C86.6926 89.1521 86.7969 89.2218 86.9459 89.1824C86.9906 89.2794 87.0144 89.3764 87.0144 89.4674C87.0144 89.625 86.931 89.7432 86.7671 89.8251C86.6032 89.9069 86.3797 89.9463 86.0996 89.9463C85.9775 89.9463 85.8791 89.9281 85.8106 89.8948C85.7391 89.8614 85.6288 89.725 85.4799 89.4946V89.4977ZM85.2921 87.7668C85.0716 87.7153 84.8452 87.688 84.6187 87.688C84.3595 87.688 84.1747 87.7365 84.0645 87.8335C83.9542 87.9305 83.8976 88.1154 83.8976 88.3852C83.8976 88.6216 83.9512 88.8005 84.0615 88.9187C84.1717 89.0399 84.3297 89.1006 84.5383 89.1006C84.7051 89.1006 84.8511 89.0612 84.9793 88.9793C85.1074 88.8975 85.1908 88.7853 85.2296 88.6368C85.2683 88.4882 85.2892 88.2973 85.2892 88.0608V87.7638L85.2921 87.7668Z" fill="#006F43"/>
<path d="M89.0767 85.2494C89.4134 85.0129 89.7322 84.8462 90.0421 84.7462C90.352 84.6462 90.6082 84.5977 90.8198 84.5977C91.2519 84.5977 91.5767 84.7038 91.7852 84.922C91.9968 85.1372 92.1011 85.5707 92.1011 86.2255C92.1011 87.9351 92.1279 88.8567 92.1845 88.99C92.2411 89.1234 92.3603 89.1871 92.5451 89.1841C92.5898 89.3083 92.6136 89.4387 92.6136 89.5751C92.6136 89.6994 92.5778 89.7842 92.5063 89.8297C92.4348 89.8752 92.2948 89.8964 92.0921 89.8964C91.5945 89.8964 91.2787 89.8873 91.1476 89.8691C91.0165 89.8509 90.9241 89.7964 90.8764 89.6994C90.8258 89.6024 90.8019 89.4447 90.8019 89.2174V87.3774C90.8019 86.668 90.7453 86.1952 90.6291 85.9527C90.5129 85.7102 90.3281 85.5889 90.0689 85.5889C89.8514 85.5889 89.6786 85.6616 89.5534 85.8041C89.4283 85.9466 89.3657 86.2497 89.3657 86.7075V87.7563C89.3657 88.1958 89.3746 88.6687 89.3895 89.181H89.9378C89.9884 89.2962 90.0153 89.4235 90.0153 89.566C90.0153 89.6872 89.9944 89.7721 89.9497 89.8206C89.905 89.8691 89.8186 89.8934 89.6905 89.8934H87.5182C87.4616 89.7479 87.4348 89.6084 87.4348 89.4811C87.4348 89.372 87.4557 89.2962 87.5004 89.2477C87.5421 89.2022 87.6136 89.178 87.709 89.178H88.0457C88.0606 88.6051 88.0695 88.0109 88.0695 87.4016C88.0695 86.4286 88.0278 85.8526 87.9473 85.6768C87.8669 85.501 87.7239 85.4131 87.5212 85.4131C87.4646 85.2736 87.4378 85.1342 87.4378 84.9948C87.4378 84.8705 87.4765 84.7886 87.56 84.7492C87.6404 84.7098 88.15 84.6765 89.0826 84.6462C89.0975 84.7917 89.0975 84.9917 89.0826 85.2464L89.0767 85.2494Z" fill="#006F43"/>
<path d="M96.204 89.4984C95.8793 89.6924 95.5932 89.8258 95.3518 89.8955C95.1105 89.9682 94.8661 90.0016 94.6248 90.0016C94.1033 90.0016 93.6981 89.8258 93.418 89.4711C93.1349 89.1195 92.9949 88.5071 92.9949 87.6402C92.9949 86.6035 93.2094 85.8366 93.6385 85.3394C94.0676 84.8392 94.6486 84.5907 95.3876 84.5907C95.5217 84.5907 95.629 84.5907 95.7094 84.5998C95.7899 84.6058 95.8763 84.6149 95.9716 84.624C95.9716 84.4906 95.9657 84.3179 95.9538 84.1148C95.9418 83.9117 95.918 83.7328 95.8852 83.5843C95.8524 83.4357 95.7928 83.3418 95.7064 83.2993C95.623 83.2569 95.5127 83.2357 95.3757 83.2357C95.3191 83.0932 95.2922 82.9507 95.2922 82.8083C95.2922 82.6658 95.3399 82.5688 95.4383 82.5294C95.5336 82.49 95.8435 82.4688 96.3679 82.4688C96.6927 82.4688 96.9162 82.4839 97.0354 82.5142C97.1546 82.5445 97.2231 82.5961 97.241 82.6779C97.2589 82.7598 97.2648 82.8719 97.2648 83.0174V86.7126C97.2648 87.9282 97.2946 88.6527 97.3512 88.883C97.4108 89.1134 97.5062 89.2135 97.6403 89.1831C97.7029 89.2832 97.7327 89.3862 97.7327 89.4863C97.7327 89.6136 97.5986 89.7318 97.3334 89.8409C97.0682 89.947 96.8566 90.0016 96.6987 90.0016C96.6033 90.0016 96.5259 89.9743 96.4663 89.9197C96.4067 89.8652 96.3173 89.7227 96.2011 89.4984H96.204ZM95.2535 85.494C94.9913 85.494 94.7917 85.6062 94.6576 85.8275C94.5205 86.0487 94.452 86.5338 94.452 87.2825C94.452 87.8948 94.5116 88.3495 94.6307 88.6496C94.7499 88.9497 94.9496 89.1013 95.2297 89.1013C95.4025 89.1013 95.5485 89.0619 95.6647 88.9831C95.7839 88.9043 95.8644 88.8012 95.9061 88.6769C95.9478 88.5496 95.9687 88.2646 95.9687 87.8251V85.7183C95.8673 85.6577 95.7571 85.6031 95.6379 85.5577C95.5187 85.5152 95.3906 85.494 95.2565 85.494H95.2535Z" fill="#006F43"/>
<path d="M102.887 82.6797C103.677 82.6797 104.201 82.7312 104.458 82.8343C104.714 82.9374 104.842 83.1435 104.842 83.4466C104.842 83.7497 104.747 83.9922 104.562 84.2226C103.853 83.8619 103.236 83.68 102.715 83.68C102.366 83.68 102.125 83.7497 101.99 83.8831C101.856 84.0195 101.788 84.2166 101.788 84.4742C101.788 84.7804 101.871 85.0077 102.041 85.1563C102.211 85.3078 102.551 85.4655 103.063 85.6352C103.71 85.8262 104.204 86.0687 104.556 86.3597C104.908 86.6507 105.086 87.1266 105.101 87.7875C105.101 88.5392 104.863 89.094 104.383 89.4577C103.906 89.8215 103.209 90.0034 102.291 90.0034C101.627 90.0034 101.138 89.9488 100.822 89.8366C100.507 89.7245 100.349 89.5032 100.349 89.1758C100.349 88.8848 100.456 88.6271 100.67 88.3998C101.374 88.803 102.032 89.0061 102.649 89.0061C103.051 89.0061 103.334 88.9454 103.492 88.8242C103.653 88.7029 103.731 88.5059 103.731 88.227C103.731 87.8996 103.605 87.645 103.358 87.4662C103.108 87.2843 102.7 87.1024 102.128 86.9175C101.52 86.7356 101.082 86.4779 100.816 86.1536C100.551 85.8262 100.417 85.4079 100.417 84.8986C100.417 84.1984 100.638 83.6558 101.073 83.2678C101.511 82.8798 102.116 82.6857 102.881 82.6857L102.887 82.6797Z" fill="#006F43"/>
<path d="M108.007 84.5968C108.647 84.5968 109.109 84.7605 109.398 85.0879C109.687 85.4152 109.833 85.9336 109.833 86.6429C109.833 86.9946 109.771 87.2431 109.649 87.3947C109.526 87.5432 109.258 87.619 108.841 87.619H107.125C107.134 88.0737 107.226 88.4314 107.396 88.6891C107.569 88.9467 107.873 89.0771 108.305 89.0771C108.737 89.0771 109.166 88.9376 109.613 88.6588C109.774 88.8346 109.854 89.0256 109.854 89.2317C109.854 89.5106 109.675 89.7046 109.312 89.8137C108.951 89.9228 108.528 89.9774 108.043 89.9774C107.205 89.9774 106.6 89.7864 106.222 89.4045C105.843 89.0225 105.656 88.392 105.656 87.5129C105.656 86.6338 105.867 85.8821 106.293 85.3667C106.72 84.8514 107.289 84.5938 108.007 84.5938V84.5968ZM107.822 85.4971C107.596 85.4971 107.423 85.6002 107.301 85.8093C107.178 86.0185 107.119 86.3792 107.116 86.9006H107.36C107.703 86.9006 107.962 86.8885 108.141 86.8672C108.32 86.846 108.427 86.8066 108.457 86.7521C108.487 86.6975 108.501 86.6096 108.501 86.4853C108.501 86.1731 108.442 85.9306 108.323 85.7578C108.203 85.585 108.034 85.5001 107.819 85.5001L107.822 85.4971Z" fill="#006F43"/>
<path d="M110.298 84.9978C110.298 84.8735 110.337 84.7917 110.42 84.7523C110.5 84.7128 111.01 84.6795 111.943 84.6492C111.958 84.7947 111.958 84.9978 111.943 85.2524C112.33 84.9978 112.682 84.822 112.995 84.731C113.307 84.6401 113.585 84.5977 113.826 84.5977C113.936 84.5977 114.011 84.6128 114.046 84.6401C114.082 84.6704 114.103 84.7401 114.103 84.8462C114.103 85.0372 114.079 85.2373 114.026 85.4434C113.975 85.6495 113.912 85.7829 113.838 85.8405C113.763 85.9011 113.644 85.9436 113.48 85.9708C113.316 86.0012 113.224 86.0072 113.197 85.9921C113.17 85.9799 113.084 85.8617 112.938 85.6435C112.711 85.6435 112.536 85.7344 112.413 85.9224C112.291 86.1073 112.232 86.5862 112.232 87.3592C112.232 88.0655 112.241 88.6748 112.256 89.1841H112.98C113.033 89.2992 113.063 89.4266 113.063 89.569C113.063 89.6903 113.039 89.7752 112.997 89.8237C112.953 89.8722 112.866 89.8964 112.738 89.8964H110.387C110.331 89.7509 110.304 89.6115 110.304 89.4842C110.304 89.375 110.325 89.2992 110.369 89.2507C110.411 89.2053 110.483 89.181 110.578 89.181H110.915C110.93 88.6718 110.938 88.0776 110.938 87.4047C110.938 86.4316 110.897 85.8557 110.816 85.6798C110.736 85.504 110.593 85.4161 110.39 85.4161C110.334 85.2767 110.307 85.1372 110.307 84.9978H110.298Z" fill="#006F43"/>
<path d="M117.73 85.5154H117.479C117.429 85.3941 117.402 85.2638 117.402 85.1304C117.402 84.997 117.426 84.897 117.47 84.8334C117.515 84.7727 117.592 84.7424 117.7 84.7424H119.097C119.154 84.8606 119.181 84.988 119.181 85.1183C119.181 85.2699 119.154 85.376 119.103 85.4305C119.053 85.4851 118.957 85.5124 118.826 85.5124H118.799C118.695 85.7731 118.46 86.5006 118.093 87.6919C117.727 88.8832 117.482 89.5683 117.354 89.7411C117.226 89.9139 117.005 89.9987 116.687 89.9987C116.189 89.9987 115.921 89.9714 115.885 89.9169C115.849 89.8623 115.685 89.2924 115.39 88.2102C115.098 87.1281 114.914 86.4642 114.839 86.2187C114.765 85.9731 114.705 85.7943 114.66 85.6761C114.616 85.5609 114.562 85.4881 114.503 85.4578C114.44 85.4275 114.336 85.4154 114.19 85.4154C114.133 85.2547 114.106 85.1092 114.106 84.9789C114.106 84.8485 114.163 84.7636 114.273 84.7182C114.386 84.6727 114.738 84.6484 115.331 84.6484C115.557 84.6484 115.718 84.6697 115.814 84.7121C115.909 84.7515 115.974 84.8273 116.016 84.9364C116.058 85.0455 116.109 85.3032 116.165 85.7064C116.225 86.1095 116.353 86.731 116.55 87.5706C116.746 88.4133 116.868 88.8317 116.91 88.8317C116.952 88.8317 117.089 88.3557 117.324 87.4039C117.557 86.4521 117.694 85.8216 117.73 85.5124V85.5154Z" fill="#006F43"/>
<path d="M121.344 89.1832H121.889C121.943 89.2984 121.967 89.4257 121.967 89.5682C121.967 89.6894 121.946 89.7743 121.901 89.8228C121.857 89.8713 121.77 89.8955 121.642 89.8955H119.428C119.377 89.75 119.351 89.6106 119.351 89.4833C119.351 89.3742 119.371 89.2984 119.416 89.2499C119.458 89.2044 119.529 89.1802 119.625 89.1802H120.003C120.018 88.7346 120.027 88.2617 120.027 87.7554C120.027 86.9885 120.021 86.4793 120.012 86.2277C120 85.9761 119.976 85.7911 119.941 85.6759C119.905 85.5608 119.845 85.488 119.771 85.4577C119.693 85.4274 119.583 85.4153 119.434 85.4153C119.383 85.3182 119.357 85.2061 119.357 85.0757C119.357 84.8817 119.428 84.7605 119.568 84.7181C119.708 84.6726 119.997 84.6483 120.429 84.6483C120.754 84.6483 120.978 84.6635 121.097 84.6908C121.216 84.7181 121.281 84.7726 121.299 84.8545C121.317 84.9363 121.323 85.0485 121.323 85.197V87.7615C121.323 88.2647 121.335 88.7406 121.35 89.1862L121.344 89.1832ZM120.501 83.9723C120.224 83.9723 120.024 83.9117 119.902 83.7905C119.78 83.6692 119.717 83.5025 119.717 83.2812C119.717 83.0599 119.795 82.8629 119.952 82.7174C120.11 82.5688 120.331 82.4961 120.62 82.4961C120.909 82.4961 121.124 82.5597 121.246 82.6871C121.368 82.8144 121.43 82.9811 121.43 83.1842C121.43 83.4085 121.356 83.5995 121.21 83.748C121.064 83.8966 120.826 83.9723 120.501 83.9723Z" fill="#006F43"/>
<path d="M124.523 90.0016C123.671 90.0016 123.078 89.8228 122.738 89.4681C122.399 89.1104 122.232 88.5011 122.232 87.6372C122.232 86.6641 122.452 85.9124 122.893 85.3849C123.334 84.8575 123.993 84.5938 124.869 84.5938C125.331 84.5938 125.649 84.6392 125.825 84.7271C126.001 84.8181 126.093 84.9696 126.099 85.1818C126.099 85.4516 126.025 85.7002 125.873 85.9215C125.363 85.6365 124.946 85.4941 124.627 85.4941C124.309 85.4941 124.07 85.6214 123.921 85.876C123.769 86.1306 123.692 86.5793 123.692 87.2249C123.692 87.8706 123.766 88.3314 123.915 88.6406C124.064 88.9498 124.335 89.1013 124.729 89.1013C125.048 89.1013 125.459 88.968 125.959 88.6982C126.087 88.9013 126.153 89.1135 126.153 89.3347C126.153 89.556 125.989 89.7288 125.664 89.8379C125.34 89.9471 124.958 90.0016 124.52 90.0016H124.523Z" fill="#006F43"/>
<path d="M128.871 84.5968C129.511 84.5968 129.973 84.7605 130.262 85.0879C130.551 85.4152 130.697 85.9336 130.697 86.6429C130.697 86.9946 130.635 87.2431 130.513 87.3947C130.39 87.5432 130.122 87.619 129.705 87.619H127.989C127.998 88.0737 128.09 88.4314 128.26 88.6891C128.433 88.9467 128.737 89.0771 129.169 89.0771C129.601 89.0771 130.03 88.9376 130.477 88.6588C130.638 88.8346 130.718 89.0256 130.718 89.2317C130.718 89.5106 130.539 89.7046 130.176 89.8137C129.815 89.9228 129.392 89.9774 128.907 89.9774C128.069 89.9774 127.464 89.7864 127.086 89.4045C126.707 89.0225 126.52 88.392 126.52 87.5129C126.52 86.6338 126.731 85.8821 127.157 85.3667C127.584 84.8514 128.153 84.5938 128.871 84.5938V84.5968ZM128.686 85.4971C128.46 85.4971 128.287 85.6002 128.165 85.8093C128.042 86.0185 127.983 86.3792 127.98 86.9006H128.224C128.567 86.9006 128.826 86.8885 129.005 86.8672C129.184 86.846 129.291 86.8066 129.321 86.7521C129.351 86.6975 129.365 86.6096 129.365 86.4853C129.365 86.1731 129.306 85.9306 129.187 85.7578C129.067 85.585 128.898 85.5001 128.683 85.5001L128.686 85.4971Z" fill="#006F43"/>
<path d="M133.436 84.5938C133.9 84.5938 134.258 84.6422 134.511 84.7423C134.762 84.8423 134.89 85.006 134.89 85.2425C134.89 85.488 134.803 85.7396 134.628 85.9912C133.963 85.6608 133.456 85.4971 133.102 85.4971C132.914 85.4971 132.774 85.5365 132.685 85.6183C132.595 85.7002 132.551 85.8123 132.551 85.9639C132.551 86.1155 132.61 86.2549 132.732 86.3701C132.855 86.4853 133.135 86.6308 133.573 86.8066C134.085 87.0036 134.452 87.2219 134.669 87.4584C134.887 87.6948 134.994 88.007 134.994 88.392C134.994 88.9134 134.806 89.3135 134.428 89.5924C134.052 89.8713 133.543 90.0107 132.899 90.0107C132.306 90.0107 131.883 89.9653 131.633 89.8713C131.38 89.7803 131.251 89.5894 131.251 89.3014C131.251 89.0862 131.326 88.874 131.478 88.6648C132.089 88.9619 132.631 89.1074 133.105 89.1074C133.299 89.1074 133.451 89.071 133.558 88.9983C133.665 88.9255 133.719 88.8043 133.719 88.6315C133.719 88.4344 133.623 88.2738 133.436 88.1586C133.248 88.0404 132.944 87.8918 132.524 87.71C132.074 87.5159 131.755 87.3068 131.561 87.0825C131.368 86.8581 131.272 86.5702 131.272 86.2185C131.272 85.7244 131.463 85.3334 131.847 85.0363C132.232 84.7423 132.762 84.5968 133.442 84.5968L133.436 84.5938Z" fill="#006F43"/>
<path d="M0 25.7383C0 25.7383 4.57986 30.8794 7.94398 39.8127C10.2861 46.033 11.5882 54.2479 11.8683 57.4065C12.1484 60.5652 12.8039 65.0758 12.8039 65.0758L15.0477 51.2711C15.0477 51.2711 15.2354 46.7605 12.5238 40.6251C10.5364 36.1236 7.47616 32.4163 5.70024 30.4308C3.92431 28.4453 1.68057 26.9114 0 25.7383Z" fill="#006F43"/>
<path d="M21.3084 41.2608C21.3084 41.2608 17.1963 45.5926 15.7005 49.1089C14.2047 52.6283 12.7089 57.2299 12.6165 61.3797C12.5241 65.5296 13.8322 70.4919 13.8322 70.4919L19.4401 68.1457C19.4401 68.1457 17.8519 63.4077 17.7565 58.9426C17.6582 54.2986 18.4031 50.1911 19.017 47.078C19.7649 43.2888 21.3054 41.2578 21.3054 41.2578L21.3084 41.2608Z" fill="#2A9942"/>
<path d="M19.0437 43.8751C19.0437 43.8751 25.0479 35.1327 31.4037 29.1792C40.7273 20.449 45.6557 17.3934 49.7201 15.1836C49.44 17.1691 49.44 19.6033 47.384 23.5743C45.7302 26.7663 44.0199 29.8006 38.9722 34.0384C34.3983 37.8821 30.8405 39.0917 26.356 40.9862C22.7803 42.4958 19.0437 43.872 19.0437 43.872V43.8751Z" fill="#006F43"/>
<path d="M24.133 31.7832C24.133 31.7832 17.4048 28.5578 12.7415 25.0051C5.89998 19.7912 3.44468 16.9691 1.65088 14.6289C3.13777 14.7138 4.95243 14.6107 7.98282 15.6717C10.4202 16.5265 12.7415 17.4238 16.0818 20.2641C19.1121 22.8408 20.1402 24.9203 21.7135 27.5242C22.9679 29.6006 24.13 31.7801 24.13 31.7801L24.133 31.7832Z" fill="#73C3D5"/>
<path d="M26.5017 28.1149C26.5017 28.1149 20.429 23.8468 16.448 19.5878C10.6107 13.3402 8.67986 10.1603 7.31812 7.5625C8.76925 7.88685 10.5779 8.07782 13.3789 9.61774C15.6346 10.8545 17.7651 12.1155 20.566 15.4591C23.1048 18.4904 23.7573 20.7063 24.8569 23.5285C25.7329 25.7808 26.4987 28.1149 26.4987 28.1149H26.5017Z" fill="#73C3D5"/>
<path d="M29.5411 26.8447C29.5411 26.8447 24.9255 21.1215 22.3212 15.9652C18.5012 8.40512 17.5566 4.83423 16.9905 1.97266C18.2926 2.66986 19.9732 3.33675 22.2289 5.56477C24.0405 7.35629 25.73 9.13567 27.4643 13.0946C29.0346 16.6837 29.0286 18.9875 29.2789 21.9945C29.4756 24.3923 29.5441 26.8416 29.5441 26.8416L29.5411 26.8447Z" fill="#73C3D5"/>
<path d="M32.4851 24.872C32.4851 24.872 29.5799 18.8003 28.3552 13.644C26.5614 6.08083 26.4869 2.68272 26.5971 0C27.6162 0.891209 28.9809 1.82789 30.5244 4.28326C31.764 6.25665 32.8963 8.1967 33.5936 12.1041C34.2282 15.6477 33.7247 17.7151 33.2956 20.4645C32.9529 22.6561 32.4851 24.872 32.4851 24.872Z" fill="#73C3D5"/>
<path d="M35.2652 23.1538C35.2652 23.1538 34.2581 17.2761 34.4726 12.5684C34.7855 5.66309 35.5543 2.72877 36.3081 0.449219C36.9666 1.44652 37.9082 2.56508 38.6293 5.02349C39.2104 7.00294 39.708 8.9248 39.3504 12.4411C39.0256 15.6271 38.087 17.2882 37.0441 19.5526C36.2128 21.3593 35.2652 23.1538 35.2652 23.1538Z" fill="#73C3D5"/>
<path d="M23.3642 33.4031C23.3642 33.4031 18.7396 33.2213 15.1878 32.3543C9.9822 31.0812 7.8636 30.0899 6.24561 29.2078C7.10377 28.8925 8.099 28.3954 10.0805 28.259C11.6747 28.1499 13.2152 28.0892 15.8344 28.8774C18.2093 29.5928 19.3296 30.5113 20.894 31.5965C22.1425 32.4604 23.3612 33.4062 23.3612 33.4062L23.3642 33.4031Z" fill="#73C3D5"/>
<path d="M30.3812 50.8654C30.262 50.8654 30.1368 50.8593 30.0057 50.8472C29.8657 50.8351 29.7435 50.8078 29.6481 50.7654C29.4962 50.7047 29.2787 50.6017 29.0045 50.4531C28.7244 50.3016 28.4533 50.1227 28.197 49.9196L28.1106 49.8499L28.6827 48.7344L28.8228 48.7798C29.1922 48.9617 29.5141 49.089 29.7793 49.1557C30.0444 49.2224 30.2649 49.2588 30.4348 49.2588H33.635L33.6857 49.3558C33.7155 49.4346 33.7304 49.5377 33.7304 49.6771C33.7304 49.8014 33.7214 49.9318 33.7036 50.0682C33.6857 50.2106 33.6559 50.341 33.6201 50.4683C33.5844 50.5986 33.5456 50.7047 33.5069 50.7866L33.4652 50.8715H30.3812V50.8654Z" fill="#006F43"/>
<path d="M29.0102 50.4389C29.2873 50.5874 29.5018 50.6935 29.6508 50.7511C29.7432 50.7935 29.8624 50.8208 30.0054 50.8329C30.1365 50.8451 30.2617 50.8511 30.3809 50.8511H33.456L33.4947 50.7723C33.5334 50.6935 33.5722 50.5874 33.6079 50.457C33.6437 50.3297 33.6705 50.1994 33.6914 50.0599C33.7092 49.9235 33.7182 49.7962 33.7182 49.6719C33.7182 49.5355 33.7033 49.4325 33.6735 49.3567L33.6318 49.2688H30.4315C30.2587 49.2688 30.0382 49.2354 29.773 49.1657C29.5078 49.099 29.186 48.9717 28.8135 48.7898L28.6884 48.7383L28.1133 49.8387L28.1997 49.9084C28.456 50.1115 28.7271 50.2903 29.0042 50.4419L29.0102 50.4389Z" fill="#006F43"/>
<path d="M31.3822 59.2984C30.828 59.2984 30.3035 59.2348 29.8238 59.1105C29.3381 58.9862 28.909 58.7952 28.5485 58.5436C28.185 58.292 27.8959 57.9707 27.6903 57.5948C27.4817 57.2159 27.3774 56.7703 27.3774 56.2641C27.3774 55.7578 27.4817 55.3304 27.6903 54.9576C27.8959 54.5878 28.185 54.2725 28.5485 54.0179C28.906 53.7693 29.3292 53.5813 29.8059 53.4601C30.2767 53.3419 30.7952 53.2812 31.3465 53.2812C31.8977 53.2812 32.4013 53.3419 32.878 53.4601C33.3608 53.5813 33.7839 53.7693 34.1385 54.0209C34.496 54.2755 34.7821 54.5938 34.9877 54.9697C35.1963 55.3486 35.3006 55.7912 35.3006 56.2853C35.3006 56.7794 35.1933 57.222 34.9788 57.6009C34.7672 57.9768 34.4782 58.2951 34.1206 58.5467C33.769 58.7952 33.3518 58.9862 32.881 59.1135C32.4162 59.2408 31.9126 59.3015 31.3822 59.3015V59.2984ZM31.3733 54.7636C30.7863 54.7636 30.3035 54.8909 29.9341 55.1425C29.5795 55.385 29.4066 55.7518 29.4066 56.2641C29.4066 56.7764 29.5854 57.1189 29.9519 57.3766C30.3333 57.6433 30.822 57.7797 31.406 57.7797C31.9543 57.7797 32.4162 57.6433 32.7797 57.3766C33.1313 57.1189 33.3041 56.7582 33.3041 56.2792C33.3041 55.7669 33.1343 55.3971 32.7827 55.1485C32.4192 54.8939 31.9454 54.7636 31.3703 54.7636H31.3733Z" fill="#006F43"/>
<path d="M31.3823 59.2928C31.9097 59.2928 32.4132 59.2292 32.8781 59.1049C33.3489 58.9776 33.7631 58.7866 34.1147 58.538C34.4693 58.2864 34.7583 57.9712 34.9699 57.5953C35.1814 57.2194 35.2917 56.7768 35.2917 56.2858C35.2917 55.7947 35.1874 55.3551 34.9818 54.9762C34.7762 54.6034 34.4931 54.2851 34.1355 54.0335C33.7839 53.7849 33.3608 53.597 32.8781 53.4757C32.4013 53.3575 31.8888 53.2969 31.3495 53.2969C30.8101 53.2969 30.2827 53.3575 29.8119 53.4757C29.3352 53.597 28.912 53.7849 28.5575 54.0335C28.1939 54.2851 27.9079 54.6003 27.7023 54.9671C27.4967 55.337 27.3894 55.7765 27.3894 56.2676C27.3894 56.7586 27.4937 57.2164 27.6993 57.5923C27.9049 57.9681 28.1939 58.2864 28.5545 58.538C28.9121 58.7866 29.3411 58.9776 29.8268 59.1019C30.3066 59.2261 30.831 59.2898 31.3823 59.2898V59.2928ZM29.3948 56.2676C29.3948 55.7522 29.5676 55.3794 29.9281 55.1369C30.3006 54.8853 30.7863 54.758 31.3733 54.758C31.9603 54.758 32.4281 54.8883 32.7917 55.146C33.1463 55.3946 33.3191 55.7674 33.3191 56.2858C33.3191 56.7708 33.1463 57.1315 32.7917 57.3922C32.4281 57.659 31.9633 57.7954 31.4091 57.7954C30.8221 57.7954 30.3304 57.6589 29.946 57.3892C29.5765 57.1285 29.3948 56.7617 29.3948 56.2645V56.2676Z" fill="#006F43"/>
<path d="M31.5222 64.9835C31.1259 64.8925 30.8398 64.7622 30.6491 64.5833C30.4614 64.4045 30.3213 64.1226 30.2349 63.7406V61.9825C30.2319 61.8945 30.226 61.8036 30.2141 61.7096C30.2051 61.6429 30.1813 61.5914 30.1366 61.5459C30.074 61.4914 29.9757 61.4277 29.8535 61.3641C29.7254 61.2974 29.5198 61.2246 29.2367 61.1458L29.1414 61.1185L29.1265 60.197L32.2433 60.1758L32.2641 63.3526C32.2641 63.389 32.2641 63.4223 32.2701 63.4435L32.3356 63.4284H39.8297L39.8505 63.58C39.8505 64.0407 39.785 64.4772 39.6539 64.8774L39.6181 64.9804H31.5252L31.5222 64.9835Z" fill="#006F43"/>
<path d="M32.3326 63.4401L32.2521 63.4462C32.2521 63.4462 32.2462 63.4037 32.2462 63.3522L32.2372 60.1875L29.1323 60.1966L29.1383 61.106L29.2336 61.1333C29.5167 61.2121 29.7283 61.2848 29.8534 61.3515C29.9786 61.4152 30.0769 61.4788 30.1395 61.5364C30.1842 61.5849 30.211 61.6395 30.2199 61.7092C30.2289 61.8032 30.2348 61.8941 30.2348 61.982V63.7372C30.3242 64.1161 30.4643 64.398 30.652 64.5738C30.8397 64.7527 31.1228 64.883 31.5161 64.9709H39.6031L39.6359 64.8739C39.767 64.4738 39.8326 64.0403 39.8326 63.5796L39.8236 63.4371H32.3296L32.3326 63.4401Z" fill="#006F43"/>
<path d="M26.1826 52.606L26.1677 51.5056L36.1558 51.4844L36.1856 51.6268C36.1975 51.8451 36.1796 52.0694 36.132 52.3028C36.0843 52.5332 36.0247 52.7484 35.9532 52.9394L35.9204 53.0243L29.2756 53.0394C29.1683 53.0516 29.0283 53.0758 28.8912 53.1122C28.7482 53.1516 28.5664 53.2304 28.3459 53.3547L28.2863 53.388L26.1826 52.606Z" fill="#006F43"/>
<path d="M28.3401 53.3452C28.5576 53.224 28.7424 53.1421 28.8854 53.1027C29.0254 53.0663 29.1625 53.039 29.2728 53.0269L35.9057 53.0208L35.9355 52.936C36.007 52.742 36.0666 52.5267 36.1142 52.2994C36.1619 52.066 36.1798 51.8417 36.1679 51.6295L36.15 51.4961L26.1738 51.5052L26.1798 52.5934L28.2775 53.3725L28.3341 53.3422L28.3401 53.3452Z" fill="#006F43"/>
<path d="M52.6874 65.2454L52.6665 60.3892L47.9257 60.4104C47.735 60.4104 47.586 60.4165 47.4728 60.4286C47.3417 60.4498 47.1897 60.4892 47.0407 60.5438C46.8918 60.5984 46.7249 60.6923 46.5431 60.8227L46.4835 60.8651L44.3828 59.9224L44.3709 58.8766L48.766 58.8553L48.7452 56.4667L45.7326 56.4879C45.5896 56.5 45.4079 56.5334 45.2112 56.5879C45.0175 56.6425 44.8268 56.7365 44.645 56.8638L44.5884 56.9032L41.9663 55.918L41.9543 55.6694V55.7482C41.9156 55.8816 41.8798 55.9756 41.8411 56.0544L41.8024 56.1241L39.2785 56.1363L39.2994 60.9318L37.291 60.953L37.2702 50.1433C37.2702 49.9978 37.2583 49.9493 37.2523 49.9342C37.2523 49.9342 37.2344 49.9039 37.148 49.8523C37.0944 49.8129 36.9663 49.7644 36.7666 49.7129C36.5491 49.6553 36.3405 49.6159 36.1558 49.5947L36.0425 49.5795L36.0247 48.4822L39.2785 48.4609L39.2994 54.4781L42.0944 54.4569L42.1152 54.6085C42.1152 54.6812 42.1093 54.757 42.1003 54.8328L42.0884 54.951L42.7618 54.9389L51.8441 54.9298C52.0437 54.2599 52.2046 53.5596 52.3149 52.8594C52.4281 52.1561 52.5115 51.4438 52.5711 50.7466L52.148 50.7587L47.9972 50.7678C47.8065 50.7678 47.6576 50.7738 47.5443 50.786C47.4132 50.8072 47.2642 50.8466 47.1123 50.9012C46.9633 50.9557 46.7964 51.0497 46.6117 51.18L46.5521 51.2225L44.4514 50.2797L44.4394 49.2339H44.4603L44.502 49.2218L53.9746 49.2127C54.4007 49.2127 54.651 49.437 54.6778 49.8463C54.6421 50.3313 54.5914 50.8102 54.5199 51.3134C54.4484 51.8075 54.362 52.2865 54.2577 52.7412C54.1534 53.1989 54.0402 53.6384 53.9269 54.0416C53.8316 54.372 53.7362 54.6782 53.6438 54.954L54.5407 54.9389L57.2732 54.9298L57.303 55.0723C57.3149 55.2511 57.3 55.4724 57.2583 55.7331C57.2166 55.9968 57.1659 56.209 57.1033 56.3848L57.0735 56.4727L50.7982 56.4879L50.8191 58.8766L54.6689 58.8553L54.6897 65.2454H52.6814H52.6874Z" fill="#006F43"/>
<path d="M54.5437 54.951H53.6349C53.7303 54.6782 53.8256 54.372 53.918 54.0416C54.0312 53.6384 54.1444 53.2019 54.2487 52.7412C54.353 52.2804 54.4394 51.8015 54.511 51.3134C54.5825 50.8132 54.6331 50.3343 54.6689 49.8493C54.6391 49.4461 54.3947 49.2248 53.9776 49.2248L44.505 49.2339H44.4633H44.4543L44.4603 50.2676L46.5491 51.2103L46.6087 51.1679C46.7904 51.0345 46.9603 50.9406 47.1123 50.886C47.2642 50.8314 47.4132 50.792 47.5473 50.7708C47.6576 50.7587 47.8095 50.7526 48.0002 50.7526L52.151 50.7435H52.586C52.5294 51.4407 52.443 52.1531 52.3298 52.8564C52.2166 53.5717 52.0497 54.272 51.8471 54.9358L42.7648 54.9449H42.0825L42.0914 54.8237C42.0974 54.7479 42.1063 54.6721 42.1063 54.5994L42.0974 54.4569L39.2904 54.466L39.2815 48.4761V48.47V48.4609L36.0574 48.47H36.0485H36.0396L36.0485 49.5552L36.1617 49.5704C36.3494 49.5916 36.555 49.6341 36.7755 49.6886C36.9752 49.7402 37.1063 49.7887 37.1599 49.8311C37.2523 49.8887 37.2672 49.919 37.2672 49.919C37.2672 49.9251 37.2851 49.9675 37.2851 50.1312L37.294 60.9288L39.2904 60.9197L39.2815 56.1241V56.112L41.7964 56.1059L41.8322 56.0362C41.8739 55.9574 41.9067 55.8604 41.9365 55.7573C41.9484 55.724 41.9603 55.6906 41.9692 55.6573L41.9752 55.8937L44.5884 56.882L44.645 56.8425C44.8268 56.7122 45.0175 56.6182 45.2142 56.5637C45.4138 56.5091 45.5956 56.4758 45.7386 56.4636L48.7392 56.4545H48.763L48.772 58.8553L44.3888 58.8644L44.3947 59.9011L46.4835 60.8439L46.5431 60.8015C46.7279 60.6681 46.8947 60.5741 47.0437 60.5195C47.1927 60.465 47.3447 60.4256 47.4788 60.4044C47.589 60.3922 47.741 60.3862 47.9317 60.3862L52.6844 60.3771L52.6933 65.2211H54.6897L54.6808 58.8553L50.8191 58.8644L50.8101 56.4788V56.4667L57.0735 56.4606L57.1033 56.3727C57.1629 56.1999 57.2136 55.9877 57.2553 55.724C57.297 55.4633 57.3119 55.242 57.3 55.0662L57.2821 54.9358L54.5497 54.9449L54.5437 54.951Z" fill="#006F43"/>
<path d="M59.9372 60.2378C59.6511 60.0681 59.4396 59.865 59.2608 59.5982C59.085 59.3375 58.9837 59.0677 58.9598 58.798V52.6292C58.9598 52.5413 58.9539 52.4352 58.9419 52.317C58.933 52.2291 58.9092 52.1654 58.8645 52.1199C58.8317 52.0896 58.8019 52.0593 58.7691 52.032C58.7483 52.0138 58.7155 51.9957 58.6708 51.9775L58.4562 51.8896C58.3758 51.8562 58.2655 51.8229 58.1255 51.7895L58.0242 51.7653L58.0093 50.8559L60.9682 50.8347L60.989 54.0388L64.6481 54.0176L64.6273 52.2533C64.6273 52.1624 64.6243 52.0533 64.6183 51.9259C64.6124 51.835 64.5915 51.7713 64.5498 51.7289C64.4872 51.6743 64.4127 51.6289 64.3382 51.5955C64.2786 51.5682 64.1356 51.5167 63.787 51.4167L63.6916 51.3894L63.6767 50.4861L66.6028 50.4648L66.6237 60.2318H59.9372V60.2378ZM60.9741 55.6636L60.986 58.4463C60.986 58.5645 61.0039 58.5949 61.0039 58.5949C61.0069 58.5949 61.0307 58.607 61.0933 58.607H64.6452L64.6243 55.6393L64.5558 55.6514L60.9711 55.6605L60.9741 55.6636Z" fill="#006F43"/>
<path d="M63.7123 50.4904H63.6974H63.6885L63.6945 51.3816L63.7898 51.4089C64.1355 51.509 64.2815 51.5605 64.3411 51.5878C64.4185 51.6211 64.496 51.6696 64.5586 51.7242C64.6033 51.7697 64.6271 51.8363 64.6301 51.9303C64.6361 52.0576 64.639 52.1668 64.639 52.2577L64.648 54.0128V54.031L60.974 54.0401L60.965 50.8481L58.0181 50.8572L58.024 51.7545L58.1253 51.7788C58.2654 51.8121 58.3786 51.8454 58.4591 51.8788L58.6736 51.9667C58.7183 51.9849 58.7511 52.0031 58.7749 52.0243C58.8047 52.0516 58.8375 52.0789 58.8703 52.1122C58.915 52.1577 58.9418 52.2244 58.9507 52.3153C58.9626 52.4335 58.9686 52.5366 58.9686 52.6275V58.7963C58.9954 59.0661 59.0938 59.3328 59.2696 59.5935C59.4424 59.8512 59.6539 60.0573 59.937 60.227H66.6116L66.6027 50.4844L63.7123 50.4935V50.4904ZM64.648 58.6205H61.0961C61.0187 58.6205 60.9978 58.6023 60.9978 58.6023C60.9978 58.6023 60.9769 58.5689 60.9769 58.4446V55.6498L64.5616 55.6407H64.642L64.651 58.5871V58.6205H64.648Z" fill="#006F43"/>
<path d="M69.6421 64.9652L69.6302 64.8743L69.6212 50.1481C69.6212 49.9996 69.6093 49.9511 69.6034 49.9389C69.6034 49.9359 69.5885 49.9026 69.4991 49.8268C69.4782 49.8207 69.4395 49.8056 69.3769 49.7874C69.2935 49.7662 69.1981 49.7419 69.0909 49.7207C68.9836 49.6964 68.8674 49.6752 68.7482 49.651C68.632 49.6267 68.5217 49.6116 68.4234 49.5994L68.3072 49.5873L68.2893 48.49L71.6296 48.4688L71.6505 64.9713H69.6421V64.9652Z" fill="#006F43"/>
<path d="M68.3191 48.4809H68.3102H68.3013L68.3102 49.5661L68.4264 49.5782C68.5277 49.5903 68.635 49.6085 68.7542 49.6297C68.8734 49.654 68.9896 49.6752 69.0969 49.6995C69.2041 49.7237 69.2995 49.7449 69.3829 49.7692C69.4544 49.7874 69.4902 49.8025 69.511 49.8116C69.6064 49.8935 69.6183 49.9299 69.6183 49.9299C69.6183 49.9359 69.6362 49.9814 69.6362 50.142L69.6451 64.8682V64.9379V64.947H71.6416L71.6326 48.4688L68.3221 48.4778L68.3191 48.4809Z" fill="#006F43"/>
<path d="M78.9329 64.9823C78.5366 64.8914 78.2506 64.761 78.0599 64.5822C77.8721 64.4033 77.7321 64.1214 77.6427 63.7395V61.084C77.6397 60.9961 77.6338 60.9052 77.6218 60.8112C77.6129 60.7475 77.5891 60.693 77.5444 60.6475C77.4788 60.5899 77.3775 60.5293 77.2553 60.4656C77.1272 60.402 76.9156 60.3262 76.6266 60.2474L76.5313 60.2201L76.5164 59.2986L79.6481 59.2773L79.6689 63.3514C79.6689 63.3999 79.6719 63.4272 79.6749 63.4424L79.7404 63.4272H87.3537L87.3745 63.5788C87.3745 64.0396 87.309 64.4761 87.1779 64.8762L87.1421 64.9823H78.927H78.9329Z" fill="#006F43"/>
<path d="M79.7464 63.4389L79.6659 63.445C79.6659 63.445 79.66 63.4026 79.66 63.351L79.651 59.3103V59.2982V59.2891L76.5312 59.2982L76.5372 60.2076L76.6326 60.2348C76.9246 60.3137 77.1361 60.3894 77.2643 60.4531C77.3894 60.5167 77.4907 60.5804 77.5563 60.638C77.604 60.6835 77.6308 60.7411 77.6367 60.8078C77.6457 60.9017 77.6516 60.9927 77.6516 61.0806V63.733C77.741 64.1119 77.8811 64.3938 78.0688 64.5696C78.2565 64.7485 78.5396 64.8788 78.9329 64.9667H87.1391L87.1719 64.8697C87.303 64.4696 87.3686 64.0361 87.3686 63.5754L87.3596 63.4329H79.7464V63.4389Z" fill="#006F43"/>
<path d="M85.1635 60.3225L85.1427 55.4815L85.101 55.4936L81.7934 55.5027L81.7368 55.4209C81.6266 55.2056 81.5491 54.9722 81.5133 54.7297C81.4776 54.4993 81.4597 54.2568 81.4597 54.0113V53.8809L85.1635 53.8597L85.1427 50.1433C85.1427 49.9918 85.1307 49.9433 85.1248 49.9342C85.1248 49.9342 85.101 49.9039 85.0235 49.8523C84.9698 49.8129 84.8417 49.7644 84.6421 49.7129C84.4246 49.6553 84.216 49.6159 84.0312 49.5947L83.918 49.5795L83.9001 48.4822L87.154 48.4609L87.1749 60.3195H85.1665L85.1635 60.3225Z" fill="#006F43"/>
<path d="M83.921 49.5648L84.0342 49.58C84.2219 49.6012 84.4275 49.6436 84.648 49.6982C84.8507 49.7497 84.9788 49.7982 85.0324 49.8407C85.1129 49.8922 85.1367 49.9225 85.1397 49.9286C85.1427 49.9407 85.1576 49.9892 85.1576 50.1438L85.1665 53.8723L81.4746 53.8814V54.0148C81.4746 54.2573 81.4925 54.4998 81.5282 54.7302C81.564 54.9727 81.6385 55.2031 81.7487 55.4153L81.7934 55.4911L85.101 55.482H85.1546L85.1635 60.3109H87.16L87.151 48.4766L83.9269 48.4857H83.918H83.9091L83.918 49.5709L83.921 49.5648Z" fill="#006F43"/>
<path d="M73.8704 57.9732L74.0044 57.8731C74.8388 57.4093 75.5897 56.9243 76.2333 56.4332C76.8799 55.9452 77.458 55.4329 77.9526 54.9115C78.4443 54.3932 78.8674 53.8475 79.2041 53.2928C79.508 52.7926 79.7673 52.2621 79.9729 51.7165L79.3173 51.7317L77.3984 51.7408L76.9157 51.8014C76.8054 51.8165 76.6713 51.8802 76.5193 51.9924L76.4568 52.0409L74.6511 51.1254L74.6391 50.1736L74.7673 50.1614L81.859 50.1523C82.1481 50.1523 82.3477 50.2554 82.452 50.4555C82.5474 50.6404 82.5563 50.8374 82.4848 51.0436C82.16 52.0075 81.7547 52.8957 81.278 53.6747C80.7982 54.4568 80.2351 55.1813 79.5974 55.83C78.9598 56.4787 78.2357 57.082 77.449 57.6246C76.6594 58.1672 75.7834 58.6795 74.8388 59.1463L74.7226 59.2039L73.8733 57.9732H73.8704Z" fill="#006F43"/>
<path d="M79.5855 55.8157C80.2232 55.167 80.7863 54.4456 81.2631 53.6635C81.7398 52.8844 82.1451 51.9993 82.4699 51.0323C82.5414 50.8292 82.5295 50.6352 82.4371 50.4533C82.3358 50.2563 82.1421 50.1562 81.856 50.1562L74.7643 50.1653H74.657H74.6481L74.654 51.1081L76.4478 52.0235L76.5134 51.975C76.6653 51.8599 76.8024 51.7962 76.9156 51.781L77.3984 51.7204L79.3173 51.7113H79.9848C79.7792 52.257 79.5199 52.7874 79.216 53.2906C78.8793 53.8454 78.4562 54.391 77.9645 54.9124C77.4699 55.4308 76.8918 55.9461 76.2452 56.4341C75.5986 56.9252 74.8477 57.4102 74.0134 57.874L73.8942 57.9528L73.8853 57.9589L74.7285 59.1805L74.8358 59.1259C75.7804 58.6561 76.6594 58.1468 77.446 57.6042C78.2327 57.0646 78.9538 56.4614 79.5914 55.8097L79.5855 55.8157Z" fill="#006F43"/>
<path d="M100.876 60.4256L100.855 50.1433C100.855 49.9857 100.84 49.9433 100.837 49.9342C100.837 49.9342 100.819 49.9039 100.733 49.8523C100.679 49.8129 100.551 49.7644 100.351 49.7129C100.134 49.6553 99.9252 49.6159 99.7405 49.5947L99.6273 49.5795L99.6094 48.4822L102.863 48.4609L102.884 60.4256H100.876Z" fill="#006F43"/>
<path d="M99.63 49.5631L99.7433 49.5782C99.931 49.5994 100.137 49.6419 100.357 49.6964C100.56 49.748 100.688 49.7965 100.741 49.8389C100.834 49.8965 100.849 49.9268 100.849 49.9268C100.849 49.9329 100.867 49.9753 100.867 50.139L100.876 60.3819V60.4V60.4091H102.872L102.863 48.4688L99.639 48.4778H99.63H99.6211L99.63 49.5631Z" fill="#006F43"/>
<path d="M94.2487 57.793C93.614 57.793 93.0211 57.7021 92.4907 57.5202C91.9543 57.3383 91.4865 57.0716 91.0932 56.726C90.6969 56.3774 90.387 55.953 90.1724 55.4589C89.9579 54.9678 89.8477 54.4161 89.8477 53.822C89.8477 53.1945 89.9549 52.6216 90.1724 52.1245C90.387 51.6243 90.6939 51.1969 91.0842 50.8483C91.4716 50.5027 91.9394 50.2359 92.4758 50.051C93.0062 49.8722 93.5932 49.7812 94.2189 49.7812C95.5658 49.7812 96.6385 50.1389 97.4072 50.8392C98.179 51.5455 98.5723 52.5488 98.5723 53.819C98.5723 54.4101 98.471 54.9527 98.2744 55.4347C98.0777 55.9166 97.7857 56.338 97.4072 56.6836C97.0288 57.0291 96.5699 57.305 96.0425 57.496C95.5181 57.69 94.9162 57.787 94.2547 57.787L94.2487 57.793ZM94.213 51.3394C93.8196 51.3394 93.474 51.403 93.182 51.5212C92.8959 51.6425 92.6516 51.8153 92.4609 52.0366C92.2672 52.2609 92.1212 52.5276 92.0258 52.8308C91.9275 53.14 91.8769 53.4704 91.8769 53.8159C91.8769 54.1615 91.9275 54.4859 92.0258 54.7829C92.1212 55.0739 92.2672 55.3286 92.4609 55.5408C92.6516 55.753 92.8989 55.9227 93.1939 56.05C93.4919 56.1773 93.8465 56.241 94.2517 56.241C94.657 56.241 95.0086 56.1773 95.2976 56.05C95.5866 55.9257 95.822 55.753 96.0038 55.5438C96.1826 55.3346 96.3196 55.08 96.4061 54.789C96.4925 54.4919 96.5372 54.1706 96.5372 53.8372C96.5372 53.1248 96.3524 52.5246 95.9889 52.0517C95.6343 51.594 95.0384 51.3545 94.216 51.3424L94.213 51.3394Z" fill="#006F43"/>
<path d="M94.2489 57.7784C94.9074 57.7784 95.5093 57.6813 96.0337 57.4904C96.5612 57.2964 97.0171 57.0236 97.3925 56.678C97.7679 56.3324 98.06 55.9141 98.2566 55.4321C98.4533 54.9532 98.5516 54.4105 98.5516 53.8225C98.5516 52.5554 98.1613 51.555 97.3895 50.8518C96.6237 50.1515 95.554 49.7969 94.2101 49.7969C93.5874 49.7969 93.0033 49.8878 92.473 50.0667C91.9366 50.2485 91.4718 50.5153 91.0844 50.8609C90.697 51.2064 90.3901 51.6339 90.1756 52.131C89.961 52.6281 89.8538 53.198 89.8538 53.8225C89.8538 54.4136 89.961 54.9622 90.1756 55.4533C90.3901 55.9444 90.7 56.3688 91.0933 56.7174C91.4867 57.063 91.9545 57.3297 92.4879 57.5086C93.0182 57.6874 93.6082 57.7784 94.2429 57.7784H94.2489ZM92.0111 52.8252C92.1094 52.522 92.2554 52.2522 92.4491 52.0279C92.6398 51.8036 92.8842 51.6308 93.1762 51.5096C93.4682 51.3883 93.8168 51.3277 94.2101 51.3247C95.0385 51.3368 95.6374 51.5763 95.995 52.037C96.3585 52.5099 96.5433 53.1131 96.5433 53.8285C96.5433 54.165 96.4986 54.4863 96.4122 54.7834C96.3258 55.0744 96.1887 55.3321 96.0069 55.5443C95.8252 55.7565 95.5868 55.9292 95.2977 56.0535C95.0057 56.1808 94.6511 56.2445 94.2459 56.2445C93.8407 56.2445 93.4831 56.1808 93.1851 56.0535C92.8901 55.9262 92.6398 55.7534 92.4461 55.5412C92.2525 55.326 92.1064 55.0714 92.0081 54.7804C91.9098 54.4833 91.8591 54.1589 91.8591 53.8103C91.8591 53.4617 91.9098 53.1313 92.0081 52.8221L92.0111 52.8252Z" fill="#006F43"/>
<path d="M94.6632 64.9803C94.2668 64.8894 93.9808 64.759 93.7901 64.5802C93.6024 64.4013 93.4623 64.1194 93.3729 63.7375V61.17C93.3699 61.082 93.364 60.9911 93.3521 60.8971C93.3431 60.8335 93.3193 60.7789 93.2746 60.7334C93.212 60.6789 93.1107 60.6152 92.9856 60.5516C92.8574 60.4849 92.6459 60.4121 92.3568 60.3333L92.2615 60.306L92.2466 59.3845L95.3783 59.3633L95.3991 63.3495C95.3991 63.3859 95.3991 63.4192 95.4051 63.4404L95.4707 63.4253H103.084L103.105 63.5768C103.105 64.0376 103.039 64.4741 102.908 64.8742L102.875 64.9803H94.6602H94.6632Z" fill="#006F43"/>
<path d="M95.4763 63.437L95.3988 63.443C95.3988 63.443 95.3929 63.4006 95.3929 63.3491L95.3839 59.4053V59.3841V59.375L92.2642 59.3841L92.2701 60.2935L92.3655 60.3208C92.6545 60.3996 92.8661 60.4723 92.9972 60.539C93.1223 60.6027 93.2236 60.6663 93.2892 60.7239C93.3369 60.7694 93.3637 60.827 93.3696 60.8937C93.3786 60.9877 93.3845 61.0786 93.3845 61.1665V63.731C93.4739 64.1099 93.614 64.3918 93.8017 64.5677C93.9894 64.7465 94.2725 64.8769 94.6658 64.9648H102.872L102.905 64.8678C103.036 64.4676 103.101 64.0341 103.101 63.5734L103.093 63.4309H95.4793L95.4763 63.437Z" fill="#006F43"/>
<path d="M106.439 54.3416L106.6 54.2658C107.246 54.0687 107.908 53.8384 108.569 53.5746C109.222 53.3139 109.868 53.0229 110.491 52.7016C111.111 52.3833 111.713 52.0317 112.282 51.6558C112.744 51.3496 113.179 51.0253 113.581 50.6858L112.666 50.707L111.519 50.7161C111.328 50.7161 111.179 50.7222 111.066 50.7343C110.932 50.7555 110.783 50.7949 110.637 50.8495C110.488 50.904 110.321 50.998 110.137 51.1284L110.08 51.1708L107.803 50.2341L107.792 49.1853H107.812L107.848 49.1732L116.34 49.1641C116.576 49.1641 116.761 49.2611 116.88 49.4429C116.969 49.5794 117.029 49.8097 116.808 50.128C116.501 50.5463 116.126 50.9616 115.688 51.3587C115.303 51.7073 114.874 52.0529 114.41 52.3833L115.843 52.9957L118.668 54.2294L118.626 54.3416L117.991 55.6147L112.607 53.511C111.814 53.9626 110.944 54.384 110.023 54.7538C109.094 55.1297 108.155 55.451 107.234 55.7087L107.115 55.742L106.439 54.3446V54.3416Z" fill="#006F43"/>
<path d="M107.121 55.7265L107.232 55.6962C108.155 55.4385 109.091 55.1172 110.021 54.7413C110.929 54.3745 111.803 53.9562 112.613 53.4985L117.983 55.6052L118.617 54.3321L118.662 54.2442L118.665 54.2351L115.84 53.0013L114.404 52.3708C114.869 52.0374 115.298 51.6948 115.682 51.3462C116.12 50.9491 116.496 50.5368 116.803 50.1185C117.02 49.8063 116.96 49.582 116.874 49.4486C116.758 49.2698 116.573 49.1758 116.344 49.1758L107.851 49.1849H107.816H107.807L107.813 50.2216L110.077 51.1613L110.134 51.1189C110.316 50.9855 110.485 50.8915 110.637 50.8369C110.786 50.7824 110.938 50.743 111.07 50.7218C111.18 50.7096 111.332 50.7036 111.522 50.7036L112.67 50.6945H113.593C113.194 51.034 112.756 51.3614 112.294 51.6675C111.725 52.0434 111.12 52.395 110.5 52.7133C109.878 53.0316 109.231 53.3257 108.575 53.5864C107.917 53.8471 107.255 54.0805 106.606 54.2775L106.475 54.326H106.46V54.3321H106.451L107.121 55.7234V55.7265Z" fill="#006F43"/>
<path d="M104.88 57.3591L104.865 56.3103L105.086 56.2982L120.193 56.2891L120.223 56.4315C120.235 56.6104 120.22 56.8317 120.178 57.0924C120.134 57.3561 120.083 57.5713 120.023 57.7441L119.994 57.832L108.647 57.8472C108.504 57.8593 108.322 57.8926 108.125 57.9472C107.932 58.0018 107.741 58.0957 107.559 58.223L107.497 58.2685L104.88 57.3621V57.3591Z" fill="#006F43"/>
<path d="M105.086 56.309H104.887H104.878L104.884 57.3457L107.494 58.249L107.553 58.2066C107.735 58.0763 107.926 57.9823 108.123 57.9277C108.322 57.8732 108.504 57.8398 108.647 57.8277L119.982 57.8216L120.012 57.7337C120.071 57.5609 120.122 57.3487 120.164 57.085C120.205 56.8243 120.22 56.603 120.208 56.4272L120.191 56.2969L105.083 56.306L105.086 56.309Z" fill="#006F43"/>
<path d="M112.726 65.6459C111.216 65.6459 110.024 65.3518 109.177 64.7759C108.313 64.1848 107.875 63.3148 107.875 62.1871C107.875 61.0595 108.313 60.1925 109.177 59.6135C110.024 59.0497 111.201 58.7617 112.676 58.7617C114.151 58.7617 115.313 59.0467 116.165 59.6135C117.035 60.1925 117.476 61.0625 117.476 62.2053C117.476 63.3481 117.041 64.1696 116.183 64.7668C115.342 65.3488 114.18 65.6459 112.726 65.6459ZM112.673 60.3198C110.867 60.3198 109.988 60.9291 109.988 62.1811C109.988 62.8055 110.196 63.2723 110.629 63.6027C111.052 63.9271 111.722 64.0938 112.616 64.0938H112.702C113.644 64.0817 114.332 63.915 114.75 63.5936C115.158 63.2814 115.354 62.8298 115.354 62.2144C115.354 61.599 115.158 61.114 114.75 60.7988C114.335 60.4805 113.635 60.3168 112.673 60.3168V60.3198Z" fill="#006F43"/>
<path d="M116.156 59.63C115.307 59.0662 114.135 58.7812 112.675 58.7812C111.215 58.7812 110.029 59.0662 109.186 59.63C108.325 60.206 107.887 61.0669 107.887 62.1915C107.887 63.3161 108.322 64.1831 109.183 64.7711C110.026 65.3471 111.218 65.6381 112.726 65.6381C114.234 65.6381 115.336 65.3441 116.177 64.7621C117.032 64.1679 117.464 63.31 117.464 62.2097C117.464 61.1093 117.023 60.206 116.156 59.63ZM110.622 63.6162C110.187 63.2828 109.976 62.8129 109.976 62.1854C109.976 60.9274 110.858 60.3121 112.672 60.3121C113.638 60.3121 114.341 60.4758 114.758 60.7971C115.169 61.1123 115.369 61.5792 115.369 62.2218C115.369 62.8644 115.169 63.2949 114.758 63.6101C114.341 63.9315 113.65 64.1012 112.705 64.1103H112.619C111.719 64.1103 111.048 63.9436 110.622 63.6162Z" fill="#006F43"/>
<path d="M126.138 64.9677C125.735 64.8768 125.458 64.7495 125.265 64.5676C125.077 64.3887 124.937 64.1038 124.85 63.7249V62.4942C124.847 62.4063 124.842 62.3153 124.83 62.2213C124.824 62.1577 124.797 62.1031 124.752 62.0577C124.69 62.0031 124.588 61.9394 124.463 61.8758C124.332 61.8091 124.12 61.7363 123.834 61.6575L123.739 61.6302L123.724 60.7087L126.856 60.6875L126.877 63.3369C126.877 63.3854 126.88 63.4127 126.883 63.4278L126.948 63.4127H134.979L134.999 63.5642C134.999 64.025 134.934 64.4615 134.803 64.8616L134.767 64.9677H126.138Z" fill="#006F43"/>
<path d="M134.979 63.4205H126.951L126.871 63.4265C126.871 63.4265 126.865 63.3841 126.865 63.3326L126.856 60.6953L123.736 60.7044L123.742 61.6138L123.838 61.6411C124.127 61.7199 124.341 61.7957 124.469 61.8593C124.594 61.923 124.696 61.9867 124.761 62.0443C124.809 62.0928 124.836 62.1473 124.842 62.217C124.854 62.311 124.86 62.4019 124.86 62.4899V63.7175C124.949 64.0965 125.089 64.3753 125.274 64.5542C125.465 64.7361 125.739 64.8604 126.138 64.9513H134.761L134.794 64.8543C134.925 64.4542 134.991 64.0207 134.991 63.5599L134.982 63.4174L134.979 63.4205Z" fill="#006F43"/>
<path d="M132.491 61.7957L132.47 60.0861L129.556 60.1073L129.499 60.0315C129.398 59.8527 129.326 59.6344 129.282 59.3828C129.24 59.1433 129.219 58.8978 129.219 58.6522V58.5219L132.491 58.5007L132.47 50.1282C132.47 49.9614 132.455 49.919 132.455 49.919C132.455 49.919 132.44 49.8857 132.351 49.8038C132.318 49.7917 132.285 49.7796 132.229 49.7644C132.145 49.7432 132.05 49.7189 131.942 49.6947C131.835 49.6704 131.719 49.6492 131.6 49.625C131.481 49.6007 131.373 49.5856 131.275 49.5734L131.159 49.5613L131.141 48.4822L134.481 48.4609L134.493 48.6186L134.502 61.7988H132.494L132.491 61.7957Z" fill="#006F43"/>
<path d="M131.159 49.5488L131.275 49.5609C131.376 49.573 131.484 49.5882 131.603 49.6124C131.722 49.6367 131.838 49.6579 131.945 49.6822C132.053 49.7064 132.148 49.7276 132.232 49.7519C132.303 49.7731 132.339 49.7883 132.36 49.7943C132.455 49.8762 132.467 49.9125 132.467 49.9125C132.467 49.9186 132.485 49.9671 132.485 50.1278L132.494 58.5124L129.261 58.5215H129.243H129.234V58.6549C129.234 58.8974 129.255 59.1429 129.296 59.3824C129.338 59.631 129.413 59.8492 129.511 60.0281L129.556 60.0978L132.482 60.0887L132.491 61.7862H134.487L134.478 48.6182V48.4817V48.4727L131.168 48.4817H131.159H131.15L131.159 49.5488Z" fill="#006F43"/>
<path d="M125.232 60.1809L125.211 57.7074C125.101 57.7346 124.984 57.7407 124.865 57.7468C124.695 57.7528 124.523 57.7619 124.353 57.7741C124.117 57.7862 123.933 57.8226 123.802 57.8832C123.664 57.9468 123.548 58.0226 123.456 58.1045L123.402 58.153L120.923 57.4224L120.908 56.2554L120.965 56.2432L124.222 56.2341C124.809 56.2341 125.423 56.225 126.066 56.2069C126.707 56.1887 127.368 56.1584 128.033 56.1189C128.7 56.0795 129.368 56.028 130.035 55.9704C130.685 55.9128 131.331 55.8431 131.963 55.7613L132.088 55.7461L132.133 55.8886C132.157 56.0401 132.163 56.2463 132.151 56.5009C132.139 56.7646 132.094 56.9889 132.017 57.1678L131.987 57.2375L131.895 57.2587C131.087 57.3527 130.294 57.4285 129.538 57.4891C128.813 57.5437 128.057 57.5952 127.27 57.6407L127.291 60.1809H125.232Z" fill="#006F43"/>
<path d="M124.35 57.7615C124.523 57.7494 124.693 57.7403 124.866 57.7342C124.985 57.7312 125.098 57.7251 125.205 57.71C125.211 57.71 125.217 57.71 125.223 57.71L125.232 60.1381V60.1623V60.1714H127.282L127.273 57.6312C128.06 57.5857 128.817 57.5372 129.538 57.4796C130.301 57.422 131.093 57.3432 131.895 57.2492L131.978 57.2341L132.008 57.1644C132.083 56.9855 132.127 56.7642 132.139 56.5005C132.151 56.2459 132.145 56.0397 132.121 55.8912L132.091 55.7578L131.966 55.773C131.341 55.8548 130.691 55.9276 130.035 55.9821C129.368 56.0397 128.701 56.0913 128.033 56.1307C127.369 56.1701 126.707 56.2004 126.066 56.2186C125.423 56.2368 124.809 56.2459 124.222 56.2459L120.965 56.255H120.929H120.92L120.926 57.4099L123.397 58.1435L123.45 58.095C123.543 58.0101 123.662 57.9373 123.799 57.8706C123.93 57.807 124.118 57.7706 124.353 57.7615H124.35Z" fill="#006F43"/>
<path d="M126.657 55.5373C126.046 55.5373 125.483 55.4646 124.982 55.3191C124.475 55.1735 124.034 54.9644 123.671 54.6946C123.301 54.4248 123.012 54.0883 122.813 53.6973C122.613 53.3063 122.512 52.8637 122.512 52.3817C122.512 51.8997 122.613 51.4571 122.813 51.0661C123.012 50.6751 123.301 50.3386 123.671 50.0627C124.037 49.7869 124.478 49.5747 124.982 49.4292C125.483 49.2837 126.046 49.2109 126.657 49.2109C127.267 49.2109 127.834 49.2837 128.34 49.4292C128.85 49.5747 129.291 49.7869 129.651 50.0627C130.015 50.3416 130.298 50.6781 130.497 51.0661C130.697 51.4571 130.798 51.8997 130.798 52.3817C130.798 52.8637 130.697 53.3063 130.497 53.6973C130.298 54.0853 130.012 54.4218 129.648 54.6946C129.291 54.9614 128.85 55.1735 128.337 55.3191C127.831 55.4646 127.264 55.5373 126.654 55.5373H126.657ZM126.657 50.7721C125.977 50.7721 125.441 50.9176 125.059 51.1995C124.687 51.4753 124.508 51.8664 124.508 52.3938C124.508 52.9213 124.69 53.3123 125.059 53.5882C125.441 53.8731 125.977 54.0156 126.657 54.0156C127.336 54.0156 127.875 53.8701 128.263 53.5851C128.641 53.3093 128.823 52.9182 128.823 52.3908C128.823 51.8633 128.641 51.4602 128.266 51.1874C127.875 50.9085 127.336 50.766 126.66 50.766L126.657 50.7721Z" fill="#006F43"/>
<path d="M123.68 54.6899C124.043 54.9566 124.481 55.1658 124.985 55.3113C125.485 55.4568 126.045 55.5296 126.656 55.5296C127.267 55.5296 127.83 55.4568 128.337 55.3113C128.846 55.1658 129.287 54.9566 129.645 54.6899C130.006 54.4171 130.292 54.0836 130.488 53.6986C130.688 53.3106 130.789 52.8681 130.789 52.3891C130.789 51.9102 130.688 51.4706 130.488 51.0796C130.289 50.6916 130.006 50.3551 129.645 50.0792C129.287 49.8064 128.846 49.5942 128.337 49.4487C127.83 49.3032 127.267 49.2305 126.656 49.2305C126.045 49.2305 125.485 49.3032 124.985 49.4487C124.481 49.5942 124.04 49.8064 123.677 50.0792C123.31 50.3551 123.021 50.6916 122.824 51.0796C122.625 51.4676 122.523 51.9071 122.523 52.3891C122.523 52.8711 122.625 53.3076 122.824 53.6986C123.024 54.0867 123.313 54.4231 123.68 54.6899ZM126.656 54.0321C125.974 54.0321 125.435 53.8866 125.053 53.6016C124.678 53.3228 124.496 52.9287 124.496 52.3982C124.496 51.8677 124.678 51.4737 125.053 51.1948C125.438 50.9098 125.977 50.7643 126.656 50.7643C127.336 50.7643 127.881 50.9068 128.268 51.1857C128.647 51.4585 128.832 51.8556 128.832 52.3982C128.832 52.9408 128.647 53.3228 128.265 53.6016C127.878 53.8866 127.336 54.0321 126.653 54.0321H126.656Z" fill="#006F43"/>
</g>
<defs>
<clipPath id="clip0_85_9400">
<rect width="135" height="90" fill="white"/>
</clipPath>
</defs>
</svg>
