<svg width="24" height="24" viewBox="0 0 24 24" fill="none" xmlns="http://www.w3.org/2000/svg">
<path fill-rule="evenodd" clip-rule="evenodd" d="M10.2565 2.35466C5.89239 2.35466 2.35461 5.8926 2.35461 10.2569C2.35461 14.6211 5.89239 18.1591 10.2565 18.1591C14.6205 18.1591 18.1583 14.6211 18.1583 10.2569C18.1583 5.8926 14.6205 2.35466 10.2565 2.35466ZM1 10.2569C1 5.14444 5.14426 1 10.2565 1C15.3687 1 19.5129 5.14444 19.5129 10.2569C19.5129 12.5693 18.6651 14.6837 17.2633 16.3061L22.8007 21.8437C23.0652 22.1082 23.0671 22.5371 22.8026 22.8016C22.5381 23.0661 22.1073 23.0661 21.8428 22.8016L16.3054 17.264C14.6831 18.6658 12.5688 19.5137 10.2565 19.5137C5.14426 19.5137 1 15.3693 1 10.2569Z" fill="white" stroke="white" stroke-linecap="round"/>
</svg>
