<svg width="100" height="100" viewBox="0 0 100 100" fill="none" xmlns="http://www.w3.org/2000/svg">
<g clip-path="url(#clip0_181_68)">
<path d="M23.9814 49.0195H76.5695V75.3136C76.5695 80.1536 72.6449 84.0782 67.8048 84.0782H32.7461C27.9061 84.0782 23.9814 80.1536 23.9814 75.3136V49.0195Z" stroke="white" stroke-width="6" stroke-linecap="round" stroke-linejoin="round"/>
<path d="M54.7472 16.9238L43.1343 18.2305L44.147 27.2305L55.7599 25.9238L54.7472 16.9238Z" stroke="white" stroke-width="6" stroke-linecap="round" stroke-linejoin="round"/>
<path d="M18.0215 30.1753L81.8965 22.9883" stroke="white" stroke-width="6" stroke-linecap="round" stroke-linejoin="round"/>
<path d="M23.9813 66.8716H19.4334C16.3852 66.8716 13.9116 64.398 13.9116 61.3499C13.9116 58.3017 16.3852 55.8281 19.4334 55.8281H23.9813" stroke="white" stroke-width="6" stroke-linecap="round" stroke-linejoin="round"/>
<path d="M76.5693 66.8716H81.1172C84.1654 66.8716 86.639 64.398 86.639 61.3499C86.639 58.3017 84.1654 55.8281 81.1172 55.8281H76.5693" stroke="white" stroke-width="6" stroke-linecap="round" stroke-linejoin="round"/>
<path d="M47.6851 48.0449C47.6851 43.3801 51.4636 39.6016 56.1284 39.6016C60.7931 39.6016 64.5717 43.3801 64.5717 48.0449" stroke="white" stroke-width="6" stroke-linecap="round" stroke-linejoin="round"/>
<path d="M75.1089 40.8975C77.5292 40.8975 79.4912 38.9354 79.4912 36.5151C79.4912 34.0949 77.5292 32.1328 75.1089 32.1328C72.6886 32.1328 70.7266 34.0949 70.7266 36.5151C70.7266 38.9354 72.6886 40.8975 75.1089 40.8975Z" stroke="white" stroke-width="6" stroke-linecap="round" stroke-linejoin="round"/>
</g>
<defs>
<clipPath id="clip0_181_68">
<rect width="78.5607" height="73" fill="white" transform="translate(11 14)"/>
</clipPath>
</defs>
</svg>
