<svg width="100" height="100" viewBox="0 0 100 100" fill="none" xmlns="http://www.w3.org/2000/svg">
<g clip-path="url(#clip0_181_75)">
<path d="M73.7689 80.612C76.8729 80.612 79.3893 78.0956 79.3893 74.9915C79.3893 71.8874 76.8729 69.3711 73.7689 69.3711C70.6648 69.3711 68.1484 71.8874 68.1484 74.9915C68.1484 78.0956 70.6648 80.612 73.7689 80.612Z" stroke="white" stroke-width="6" stroke-linecap="round" stroke-linejoin="round"/>
<path d="M54.7152 36.3971C57.8192 36.3971 60.3356 33.8808 60.3356 30.7767C60.3356 27.6726 57.8192 25.1562 54.7152 25.1562C51.6111 25.1562 49.0947 27.6726 49.0947 30.7767C49.0947 33.8808 51.6111 36.3971 54.7152 36.3971Z" stroke="white" stroke-width="6" stroke-linecap="round" stroke-linejoin="round"/>
<path d="M20.431 70.7877C23.5351 70.7877 26.0514 68.2714 26.0514 65.1673C26.0514 62.0632 23.5351 59.5469 20.431 59.5469C17.3269 59.5469 14.8105 62.0632 14.8105 65.1673C14.8105 68.2714 17.3269 70.7877 20.431 70.7877Z" stroke="white" stroke-width="6" stroke-linecap="round" stroke-linejoin="round"/>
<path d="M66.434 39.0968C68.8602 42.2818 70.3028 46.2535 70.3028 50.5719C70.3028 61.0353 61.8159 69.5221 51.3526 69.5221C40.8892 69.5221 32.4023 61.0353 32.4023 50.5719C32.4023 44.2583 35.4936 38.6659 40.2428 35.2188" stroke="white" stroke-width="6" stroke-linecap="round" stroke-linejoin="round"/>
<path d="M60.9544 82.5884C57.7133 83.6282 54.2661 84.1809 50.6784 84.1809C42.8285 84.1809 35.6063 81.5018 29.8828 76.9961" stroke="white" stroke-width="6" stroke-linecap="round" stroke-linejoin="round"/>
<path d="M16.9922 50.4976C16.9922 31.894 32.0737 16.8125 50.6773 16.8125C69.2809 16.8125 84.3624 31.894 84.3624 50.4976C84.3624 54.8441 83.5381 58.9938 82.0486 62.797" stroke="white" stroke-width="6" stroke-linecap="round" stroke-linejoin="round"/>
<path d="M51.3431 56.1159C54.4472 56.1159 56.9635 53.5995 56.9635 50.4954C56.9635 47.3914 54.4472 44.875 51.3431 44.875C48.239 44.875 45.7227 47.3914 45.7227 50.4954C45.7227 53.5995 48.239 56.1159 51.3431 56.1159Z" stroke="white" stroke-width="6" stroke-linecap="round" stroke-linejoin="round"/>
</g>
<defs>
<clipPath id="clip0_181_75">
<rect width="75.1826" height="73" fill="white" transform="translate(12 14)"/>
</clipPath>
</defs>
</svg>
