<svg width="100" height="100" viewBox="0 0 100 100" fill="none" xmlns="http://www.w3.org/2000/svg">
<g clip-path="url(#clip0_181_69)">
<path d="M32.17 51.2305H67.84C76.21 51.2305 83.01 58.0305 83.01 66.4005V80.0005C83.01 82.2105 81.22 84.0005 79.01 84.0005H21C18.79 84.0005 17 82.2105 17 80.0005V66.4005C17 58.0305 23.8 51.2305 32.17 51.2305Z" stroke="white" stroke-width="6" stroke-linecap="round" stroke-linejoin="round"/>
<path d="M25.01 51.95V37.5H36.64V50.41" stroke="white" stroke-width="6" stroke-linecap="round" stroke-linejoin="round"/>
<path d="M36.6398 37.4976H25.0098L19.8398 21.4576C25.9498 15.8976 35.4498 15.8276 41.6398 21.3076L41.8198 21.4576L36.6498 37.4976H36.6398Z" stroke="white" stroke-width="6" stroke-linecap="round" stroke-linejoin="round"/>
<path d="M47.72 50.13V37.5H58.12V50.47" stroke="white" stroke-width="6" stroke-linecap="round" stroke-linejoin="round"/>
<path d="M67.25 51.21V37.5H76.6V53.5" stroke="white" stroke-width="6" stroke-linecap="round" stroke-linejoin="round"/>
<path d="M52.95 37.5V17" stroke="white" stroke-width="6" stroke-linecap="round" stroke-linejoin="round"/>
<path d="M49.3901 20.8594H56.2901" stroke="white" stroke-width="6" stroke-linecap="round" stroke-linejoin="round"/>
<path d="M49.3901 28.8125H56.2901" stroke="white" stroke-width="6" stroke-linecap="round" stroke-linejoin="round"/>
<path d="M78.4901 31.56C78.4901 37.15 75.5501 37.5 71.9301 37.5C68.3101 37.5 65.3701 37.16 65.3701 31.56C65.3701 25.96 68.3101 17.25 71.9301 17.25C75.5501 17.25 78.4901 25.97 78.4901 31.56Z" stroke="white" stroke-width="6" stroke-linecap="round" stroke-linejoin="round"/>
<path d="M18 72H82" stroke="white" stroke-width="6" stroke-linecap="round" stroke-linejoin="round"/>
</g>
<defs>
<clipPath id="clip0_181_69">
<rect width="72" height="73" fill="white" transform="translate(14 14)"/>
</clipPath>
</defs>
</svg>
