<svg width="100" height="100" viewBox="0 0 100 100" fill="none" xmlns="http://www.w3.org/2000/svg">
<g clip-path="url(#clip0_181_73)">
<path d="M47.4584 17.0391H27.1807V29.2057H47.4584V17.0391Z" stroke="white" stroke-width="6" stroke-linecap="round" stroke-linejoin="round"/>
<path d="M57.5976 83.9583H17.042L23.1253 41.375H51.5142L57.5976 83.9583Z" stroke="white" stroke-width="6" stroke-linecap="round" stroke-linejoin="round"/>
<path d="M83.1172 17.0391H64.8672V44.2011H83.1172V17.0391Z" stroke="white" stroke-width="6" stroke-linecap="round" stroke-linejoin="round"/>
<path d="M64.8672 17.0391V46.3506C64.8672 48.2161 65.4958 50.031 66.6415 51.5113L68.6591 54.0967C71.3054 57.4932 72.7451 61.6806 72.7451 65.9896V83.9659" stroke="white" stroke-width="6" stroke-linecap="round" stroke-linejoin="round"/>
<path d="M23.125 41.3744L27.1806 28.7109" stroke="white" stroke-width="6" stroke-linecap="round" stroke-linejoin="round"/>
<path d="M47.459 28.7109L51.5145 41.3744" stroke="white" stroke-width="6" stroke-linecap="round" stroke-linejoin="round"/>
<path d="M20.418 71.7891H55.5695" stroke="white" stroke-width="6" stroke-linecap="round" stroke-linejoin="round"/>
<path d="M64.8672 26.1641H83.1172" stroke="white" stroke-width="6" stroke-linecap="round" stroke-linejoin="round"/>
<path d="M64.8672 35.2891H83.1172" stroke="white" stroke-width="6" stroke-linecap="round" stroke-linejoin="round"/>
<path d="M37.6542 63.6788C39.894 63.6788 41.7097 60.5013 41.7097 56.5816C41.7097 52.6619 39.894 49.4844 37.6542 49.4844C35.4144 49.4844 33.5986 52.6619 33.5986 56.5816C33.5986 60.5013 35.4144 63.6788 37.6542 63.6788Z" fill="white"/>
</g>
<defs>
<clipPath id="clip0_181_73">
<rect width="72.1585" height="73" fill="white" transform="translate(14 14)"/>
</clipPath>
</defs>
</svg>
